<svg width="379" height="216" viewBox="0 0 379 216" fill="none" xmlns="http://www.w3.org/2000/svg">
<path d="M144.405 206.125C144.405 206.075 145.155 205.625 146.08 205.1C147.005 204.576 147.655 204.126 147.505 204.076C147.355 204.025 146.28 204.375 145.13 204.875C143.155 205.725 142.905 205.75 141.155 205.625C139.205 205.45 137.98 205.126 133.23 203.451C131.705 202.9 129.955 202.4 129.355 202.326C128.755 202.251 127.505 201.95 126.53 201.625C123.53 200.625 121.78 200.35 120.78 200.725C119.955 201.025 119.83 201 119.13 200.4C118.43 199.8 118.305 199.775 117.705 200.1C117.255 200.326 116.83 200.375 116.455 200.225C115.83 200 115.93 199.5 116.58 199.5C116.955 199.5 116.955 199.451 116.605 199.076C116.18 198.6 115.705 197.075 115.605 195.875C115.53 195.175 115.43 195.1 114.18 194.9C112.53 194.625 111.18 193.425 110.68 191.775C110.505 191.175 110.005 190.375 109.58 189.975C108.855 189.3 108.83 189.2 109.105 188.425C109.53 187.25 109.48 186.876 108.805 186.076C108.355 185.525 108.205 185.076 108.205 184.1C108.205 183.05 108.055 182.55 107.33 181.475C106.855 180.725 105.955 179.625 105.305 179C104.305 178.05 104.08 177.925 103.68 178.175C103.18 178.5 102.155 178.35 102.155 177.975C102.155 177.826 102.33 177.675 102.53 177.6C103.105 177.375 102.98 177 102.33 177C102.005 177 101.18 176.701 100.455 176.35C99.6553 175.951 98.8803 175.75 98.3553 175.8C97.6303 175.875 97.5303 175.975 97.4553 176.701C97.3553 177.6 98.5553 179.575 99.1053 179.375C99.2803 179.3 99.4053 179.5 99.4053 179.875C99.4053 180.525 98.7803 181 97.9303 181C97.6303 181 97.4053 181.125 97.4053 181.25C97.4053 181.4 97.1303 181.5 96.8053 181.5C96.4803 181.5 96.1553 181.576 96.1053 181.701C95.9303 182.076 94.4303 182.75 93.7053 182.75C92.7553 182.75 92.4553 182.35 93.2053 182.1C93.7053 181.925 93.6303 181.875 92.6553 181.625C91.7803 181.4 91.2803 181.4 90.4053 181.675C88.0553 182.35 86.6553 181.75 86.6553 180.05C86.6553 179.05 86.4053 179.025 85.8553 180L85.4303 180.725L84.2303 180.375C83.5803 180.175 82.7303 180 82.3553 180C81.6053 180 81.4053 180.425 82.0303 180.675C82.3803 180.8 82.3803 180.85 82.0053 181.275C81.6053 181.7 81.5803 181.7 81.0803 181.25C80.5803 180.775 80.5803 180.775 79.8553 181.3C79.4303 181.575 78.5803 181.876 77.9553 181.951C77.1553 182.025 76.5553 182.275 76.0803 182.725C75.4053 183.35 75.2803 183.375 72.7803 183.3C71.3803 183.275 69.9303 183.35 69.5803 183.475C69.1553 183.65 68.7053 184.201 68.3053 185.076C67.9303 185.826 67.4553 186.6 67.2303 186.8C66.8053 187.15 63.1553 188.9 61.5303 189.5C60.8803 189.75 60.8303 189.825 61.2303 190.025C61.4553 190.175 61.6553 190.375 61.6553 190.5C61.6553 190.925 60.5053 190.9 59.9803 190.425C59.4553 189.975 59.4053 189.975 57.6053 190.451C56.6053 190.725 54.7553 191.025 53.5303 191.125C51.3053 191.3 51.2303 191.3 50.4553 190.625C50.0303 190.25 49.4803 189.576 49.2553 189.1C48.7053 187.975 47.9053 187.425 45.7303 186.775C43.5053 186.125 43.4803 186.125 44.3303 186.9C44.8803 187.4 44.9303 187.5 44.5303 187.375C44.2553 187.3 43.7303 187.15 43.3303 187.076C42.4303 186.9 37.9303 183.025 33.5053 178.625C29.9053 175.05 28.3553 173.075 23.4803 165.75C22.2303 163.9 20.8553 161.75 20.4303 161C19.9803 160.25 19.0553 158.675 18.3553 157.5C17.6803 156.325 15.8803 152.9 14.4053 149.875C8.40528 137.675 4.88028 126.475 3.15528 114.05C1.60528 102.75 1.88028 88.9755 3.88028 78.6005C4.15528 77.2505 4.50528 75.3755 4.68028 74.4505C4.93028 73.0755 5.08028 72.7755 5.53028 72.6755C5.98028 72.6005 6.05528 72.6755 5.95528 73.0505C5.85528 73.4755 5.93028 73.5255 6.70528 73.3755C7.75528 73.1755 8.35528 73.6755 8.88028 75.1755C9.40528 76.6255 9.55528 76.7255 10.5303 76.4255C11.1803 76.2255 11.4803 76.2505 11.7803 76.5005C12.2053 76.8505 12.2803 77.9005 11.9053 78.1255C11.7803 78.2005 11.6553 78.8005 11.6553 79.4255C11.6553 80.3755 11.5053 80.7505 10.6553 81.7505C10.1053 82.4005 9.15528 83.1755 8.53028 83.4755C7.70528 83.8755 7.15528 84.3755 6.53028 85.3755C5.40528 87.1005 5.38028 87.5255 6.50528 85.8755C7.60528 84.2255 7.85528 84.0505 9.30528 83.7755C10.2053 83.6005 10.7053 83.3255 11.2803 82.6755C13.2553 80.4255 14.1553 79.2505 14.4803 78.4505C14.7303 77.8505 15.2303 77.3255 15.9553 76.9005C17.2053 76.1755 17.7553 75.0255 17.6053 73.5255C17.5553 72.8255 17.3803 72.6255 16.7803 72.4255C15.5553 72.0255 15.4053 71.7755 15.4053 70.2755C15.4053 68.5005 15.7803 67.1755 16.5053 66.3255C17.0553 65.7005 17.1303 65.6755 17.8803 66.0005C18.8053 66.3755 19.6553 67.3505 19.6553 68.0255C19.6553 68.3505 19.8303 68.5005 20.2553 68.5005C20.5803 68.5005 21.0053 68.5505 21.2053 68.6255C21.3803 68.7005 21.6303 68.5005 21.7803 68.2005C21.9553 67.8005 22.2803 67.6005 22.8553 67.5505C23.6053 67.4755 23.6553 67.5005 23.6553 68.3255C23.6553 69.4505 24.2553 70.0005 24.6553 69.2505C25.1053 68.4255 25.2553 65.5005 24.9053 64.3005C24.6553 63.3505 24.5553 63.2255 24.0803 63.3505C23.7803 63.4505 23.0053 63.5755 22.3553 63.6755C21.2303 63.8005 21.1803 63.7755 20.6803 62.9755C20.3803 62.5005 20.1553 62.2755 20.1553 62.4505C20.1553 62.6255 19.5303 63.1505 18.7553 63.6505C17.9803 64.1505 17.2803 64.7755 17.2303 65.0255C17.1053 65.4755 16.8303 65.6255 16.3053 65.5255C16.2053 65.5005 15.8803 65.5505 15.6303 65.6255C15.2303 65.7505 15.1803 65.9505 15.3053 66.6255C15.5053 67.7005 14.8303 70.0255 14.0553 70.9255C13.5303 71.5255 13.2803 71.6005 12.0303 71.6255C10.2553 71.6255 9.80528 71.1755 10.4803 70.0255C10.9303 69.2505 11.0303 68.5005 10.6803 68.5005C10.5553 68.5005 9.85528 68.7755 9.10528 69.1255C8.38028 69.4755 7.58028 69.7505 7.33028 69.7505C7.08028 69.7505 6.83028 69.9255 6.75528 70.1255C6.50528 70.7755 6.15528 70.5255 6.15528 69.7255C6.15528 68.3005 6.98028 65.7505 7.43028 65.7505C7.73028 65.7505 7.88028 66.0505 7.98028 66.7755C8.05528 67.3255 8.18028 67.8505 8.25528 67.9255C8.65528 68.3255 10.5303 67.0505 11.7053 65.5755C13.0303 63.9505 13.8303 63.5755 14.0803 64.5005C14.2303 65.0755 14.2803 65.1005 14.9303 64.7505C15.3053 64.5255 15.4053 64.2005 15.4053 63.1005C15.4053 61.4505 15.8553 60.4755 16.9553 59.8005C17.4303 59.5005 18.0553 59.0005 18.3803 58.6505C19.4303 57.5255 19.7553 57.7755 19.5803 59.5505C19.5053 60.4255 19.3803 61.3505 19.2553 61.6005C19.0803 62.0755 19.0803 62.0755 19.7303 61.6005C20.3303 61.1755 20.3803 60.9505 20.4053 59.5505C20.4053 57.5505 20.7803 56.7255 22.5053 54.8755C23.9053 53.3755 24.1303 52.9255 23.6553 52.6255C23.3053 52.4005 21.3053 53.8505 20.4803 54.9005C20.0803 55.4005 19.4803 55.9505 19.1053 56.1505C18.4803 56.4755 18.4053 56.4505 18.1803 56.0505C17.7553 55.2755 17.5803 53.1255 17.8803 52.5505C18.0553 52.2255 18.6803 51.8755 19.5053 51.6505C20.5803 51.3255 21.1053 50.9755 22.0053 49.9755C22.6303 49.2755 23.1553 48.5755 23.1553 48.4005C23.1553 48.2505 22.6053 48.7255 21.9303 49.4505C21.2553 50.1505 20.5803 50.7505 20.4553 50.7505C19.6553 50.7505 19.8303 49.0505 20.7553 47.6755C21.0803 47.2005 21.4303 46.3505 21.5303 45.8005C21.6053 45.2505 21.9053 44.6005 22.1803 44.3505C22.7053 43.8755 22.8553 42.6505 22.3553 42.8005C22.1803 42.8755 21.5053 43.9005 20.8553 45.1255C20.1803 46.3505 19.4053 47.6005 19.1303 47.9005C18.4553 48.6255 17.4303 48.8005 16.7303 48.3505C16.0553 47.9255 16.0053 47.2255 16.5303 45.7505C17.0803 44.2005 16.8053 44.2255 16.0553 45.8005C15.3803 47.2255 15.2303 46.9505 15.6803 45.0755C16.1553 43.0005 17.0803 41.3505 18.0803 40.7505C18.6053 40.4505 18.9053 40.3505 18.8303 40.5505C18.2553 41.9755 18.2553 41.9005 18.9053 41.4755C19.2553 41.2505 19.9803 41.0005 20.5303 40.9005C21.8803 40.6505 22.4053 40.3255 22.2553 39.8755C22.1553 39.6755 22.2303 39.4755 22.3803 39.4755C22.5303 39.4505 22.7803 39.4255 22.9553 39.4005C23.3303 39.3755 23.5053 38.8255 23.1803 38.6255C23.0303 38.5505 22.6053 38.7005 22.2303 38.9755C21.8303 39.2755 21.1553 39.5755 20.7303 39.6505C19.6803 39.8505 19.6553 39.4255 20.6303 38.0505C21.6303 36.7005 23.0053 34.2505 22.8553 34.1255C22.7803 34.0505 22.5803 34.3005 22.3803 34.7005C22.2053 35.0755 21.8053 35.7255 21.5303 36.1255C20.8053 37.2005 20.4803 37.7255 19.8053 39.0005L19.1803 40.1255L19.1553 39.2255C19.1553 38.7505 19.3303 38.1255 19.5303 37.8505C19.7303 37.6005 19.9053 37.1755 19.9053 36.9505C19.9053 36.7005 20.0553 36.5005 20.2553 36.5005C20.6303 36.5005 20.9053 35.9755 20.9053 35.2255C20.9053 34.9505 21.0803 34.6755 21.3053 34.5755C21.5053 34.5005 21.9553 33.8505 22.2553 33.1255C23.0553 31.3255 24.2553 29.7005 26.4803 27.4255C28.4303 25.4255 29.1553 24.9255 28.1053 26.3255C27.7553 26.7505 27.0553 27.7505 26.5553 28.5005L25.6053 29.8755L27.3303 28.1255C28.2803 27.1755 29.8553 25.6505 30.8053 24.7505C31.7803 23.8505 33.0553 22.4005 33.6553 21.5005C34.8803 19.6505 36.1303 18.2505 36.5303 18.2505C36.6803 18.2505 37.0803 18.5255 37.3803 18.8505L37.9553 19.4505L37.0303 21.2255C36.1553 22.8755 36.1053 23.0755 36.2803 24.5005C36.4553 25.9505 36.4803 26.0005 36.8303 25.5005C37.1303 25.0755 37.1553 24.8255 36.9303 24.3005C36.6803 23.7005 36.7553 23.3755 37.5303 21.8005L38.4303 19.9755L41.6053 22.9755C46.4803 27.5755 49.7803 30.9755 49.5803 31.1755C49.2803 31.4755 48.6303 30.9505 48.0553 29.8755C47.2303 28.4005 45.9053 27.4505 44.4553 27.3005C43.3303 27.2005 43.1553 27.2755 41.6303 28.4255C39.3803 30.1505 37.3553 32.6755 37.5053 33.5505C37.6053 34.0005 37.5053 34.2505 37.2553 34.3505C36.6303 34.6005 36.4053 34.5255 36.4053 34.1005C36.4053 33.8005 36.2553 33.7255 35.7803 33.8505C34.9803 34.0505 32.6553 32.9255 32.6553 32.3505C32.6553 31.8755 33.4053 30.6005 34.5803 29.0505C35.1803 28.2505 35.4053 27.7005 35.3803 27.0505C35.3553 25.0755 35.0553 25.1255 34.1553 27.2755C33.6803 28.4005 32.8053 30.0255 32.2553 30.8755C31.6803 31.7255 30.8053 33.4255 30.3303 34.6505C29.8553 35.8755 29.1303 37.5005 28.7303 38.2255C28.2303 39.2255 28.0553 39.9005 28.0803 40.7255C28.1303 42.1255 27.3303 43.6505 26.0053 44.6505C25.0803 45.3505 24.0303 46.7005 24.2303 46.9005C24.2803 46.9755 24.7553 46.6005 25.2553 46.1005C26.2303 45.1255 26.6303 45.1005 27.0803 46.0255C27.5803 47.0505 27.0303 48.4255 25.0053 51.2005C24.3303 52.1005 24.8303 52.1755 25.7303 51.3005C26.7053 50.3505 27.0553 50.3255 27.8303 51.0505C28.4053 51.5755 28.4053 51.5755 28.7803 51.1005C29.2803 50.4255 29.2553 50.2505 28.5303 50.2505C27.7553 50.2505 27.2803 49.4505 27.6553 48.7505C28.4303 47.3005 31.1553 46.3505 31.1553 47.5255C31.1553 47.9255 31.2553 48.0005 31.6053 47.8755C31.8303 47.7755 32.4553 47.6005 32.9803 47.4755C33.5053 47.3505 34.5553 46.9005 35.3303 46.5005C36.1053 46.0755 37.1803 45.6755 37.7053 45.6005C38.2803 45.5005 38.6553 45.3005 38.6553 45.1005C38.6553 44.7255 39.4303 44.6255 39.7553 44.9255C39.8553 45.0255 40.0803 45.1255 40.2303 45.1505C40.4053 45.1505 40.7553 45.2005 41.0053 45.2005C41.4803 45.2505 41.4803 45.2755 40.9803 45.8255C40.5553 46.2755 40.4803 46.5505 40.6303 47.3755C40.8303 48.5255 40.8803 48.5255 43.0053 47.6005C44.5553 46.9005 45.4803 46.9255 46.5803 47.6255C47.1053 47.9755 47.1553 48.1755 47.1553 50.3755C47.1553 52.7005 47.1303 52.7755 46.5303 53.0005C46.1303 53.1505 45.4303 53.1505 44.6053 52.9755C43.3553 52.7505 43.2553 52.7755 42.7053 53.3755C42.4053 53.7255 42.1553 54.1255 42.1553 54.2505C42.1553 54.3755 42.8803 54.5505 43.7803 54.6255C45.7053 54.8505 46.5303 55.3755 46.8803 56.6755C47.2303 57.9505 46.7053 59.1505 45.5303 59.6255C45.0553 59.8505 44.6553 60.0505 44.6553 60.1255C44.6553 60.1755 45.1553 60.4505 45.8053 60.7255C46.8053 61.1755 46.9053 61.3005 46.6553 61.7255C46.5303 62.0005 46.0553 62.4255 45.6553 62.6755C44.8303 63.1505 44.8053 63.2005 45.1553 63.7505C45.3053 63.9755 45.2803 64.1755 45.0803 64.3005C44.5803 64.6255 44.2053 64.5255 44.0303 64.0005C43.8803 63.5255 43.8303 63.5255 43.1553 63.8755C42.2303 64.3505 41.3803 64.3505 40.2303 63.8755C38.9053 63.3005 38.5303 63.4005 37.7053 64.5005C37.3053 65.0505 36.4553 65.9755 35.7803 66.5505C34.3303 67.8255 33.8303 67.6755 33.7053 65.9255C33.6553 65.0755 33.7303 64.6755 34.0803 64.4005C34.3303 64.1755 35.0053 63.6005 35.6053 63.1005C36.7553 62.1255 37.1303 61.2005 36.6553 60.6255C36.4303 60.3755 36.4303 59.8505 36.6303 58.6255C36.7803 57.5255 36.7803 56.7505 36.6303 56.2755L36.3803 55.5505L34.0803 55.6505C31.3803 55.7755 30.9803 55.8755 30.7803 56.4755C30.7053 56.7255 29.8553 57.6755 28.9053 58.6255C27.9303 59.5505 27.1553 60.3255 27.1553 60.3755C27.1553 60.4255 27.5803 60.5005 28.1053 60.5505C29.0053 60.6255 29.0303 60.6505 29.0803 61.7505C29.1303 62.3755 29.2803 63.2755 29.4303 63.7505C29.8303 65.1005 29.3553 68.5005 28.6803 69.0505C28.3803 69.2755 28.0053 69.5005 27.8303 69.5755C27.6053 69.6505 27.6053 69.8005 27.8053 70.2755C28.0303 70.7755 28.4053 70.9255 29.8053 71.2005C30.7303 71.3755 31.6303 71.6255 31.8053 71.7755C32.3553 72.2255 31.8803 73.0255 30.7803 73.5005C29.8303 73.9005 29.6803 74.0755 29.4303 75.1755C29.2803 75.8255 29.1803 76.8255 29.2053 77.3755C29.2553 78.1505 29.1803 78.3755 28.8303 78.4505C28.5303 78.5005 28.3303 78.3755 28.2553 78.0755C28.1553 77.7005 27.9553 77.6255 27.4303 77.7005C26.7553 77.8005 26.7303 77.7505 26.5803 76.4755C26.3803 74.7755 25.9803 74.3755 25.7803 75.6505C25.6803 76.2005 25.3553 77.7005 25.0303 79.0255C24.7053 80.3255 24.3553 82.0255 24.2553 82.7755C24.1553 83.6005 23.8053 84.5755 23.3553 85.3005C22.5303 86.6255 21.9053 89.5505 21.8553 92.2755C21.8303 94.5755 21.9803 94.9005 23.0303 94.9005C24.1303 94.9005 24.3803 95.1505 23.7553 95.6255C23.3303 95.9505 23.3303 95.9755 23.7053 96.0005C23.9303 96.0005 24.3803 96.4505 24.6803 97.0005C25.3303 98.1505 25.8053 98.2755 26.2053 97.3755C26.6553 96.4005 27.8303 95.8255 29.7803 95.6505C32.2303 95.4005 32.4803 95.3005 32.3053 94.6505C32.1303 93.9255 32.3803 93.0005 32.7803 93.0005C32.9803 93.0005 33.2553 93.4005 33.4053 93.8755L33.7053 94.7505L34.8553 93.7505C36.5803 92.2255 37.0303 92.3755 38.0553 94.8755C38.9803 97.0755 39.8053 98.0005 40.8803 98.0005C41.8803 98.0005 42.2803 97.4005 42.2803 95.9005C42.2803 94.7755 42.1553 94.4505 41.2053 93.2505C39.3553 90.8505 39.3053 90.6255 40.0303 88.3505C40.3803 87.2755 40.7303 85.8505 40.8053 85.1755C40.9553 84.0255 40.9553 83.9505 40.4803 84.1005C40.1553 84.2005 39.8553 84.1005 39.6303 83.8505C39.3553 83.5005 39.3803 83.3755 39.9053 82.9755L40.5303 82.5005L39.8303 81.8755C39.4553 81.5255 38.8803 81.2505 38.5803 81.2505C37.4553 81.2505 37.2803 80.9255 37.5803 79.3255C37.8803 77.7005 37.7053 76.9755 36.7803 76.0005C36.4553 75.6505 35.9803 74.6255 35.7053 73.7005C35.0303 71.5005 35.2053 70.8005 36.6303 70.0755C37.9053 69.4255 38.9053 68.5505 38.9053 68.0755C38.9053 67.6755 39.4803 67.5505 42.0803 67.4255C43.9303 67.3005 44.1553 67.3505 44.6053 67.8505C44.8803 68.1255 45.1803 68.6255 45.2553 68.9255C45.4053 69.4255 46.1553 70.2505 46.1553 69.9255C46.1553 69.8255 45.9303 69.2005 45.6553 68.5005C45.3803 67.8005 45.1553 67.1505 45.1553 67.0755C45.1553 66.7505 45.6803 67.4255 46.1053 68.2755C46.3553 68.7505 46.6803 69.1005 46.8553 69.0505C47.0303 69.0255 47.1553 69.2255 47.1553 69.5005C47.1553 70.1255 47.5053 70.1505 48.1303 69.5255C48.4803 69.1755 48.6553 68.3755 48.9053 66.1755C49.1803 63.6755 49.2553 63.3005 49.6303 63.4255C51.3803 64.0755 55.0303 66.2255 55.5553 66.9005C56.1803 67.7255 57.2553 68.2505 58.2803 68.2505C58.5803 68.2505 59.4053 67.8005 60.1053 67.2505C61.3553 66.2505 62.4053 65.9505 62.4053 66.6005C62.4053 66.7755 62.2303 67.0755 62.0303 67.2505C61.3803 67.8005 61.6053 68.0005 62.8803 68.0005C63.9803 68.0005 64.2053 68.1005 64.8303 68.8505C65.2053 69.3255 65.9553 70.7005 66.4803 71.9255C67.8053 74.9505 68.4803 75.4255 69.2303 73.8755C69.8303 72.6005 70.6303 72.6755 71.5553 74.1505C71.9553 74.8005 72.7053 75.5255 73.2803 75.8255C75.1553 76.8505 74.5303 78.3755 71.9553 79.0755C71.2803 79.2505 70.6803 79.6255 70.4303 79.9755C69.5803 81.2255 67.5553 83.2505 67.1553 83.2505C66.8053 83.2505 66.6803 82.8255 66.4303 80.8255C66.2553 79.4755 65.8803 77.2755 65.5803 75.9255C65.0553 73.6005 64.9803 73.5005 64.6053 73.9255C64.3553 74.2005 64.0803 75.2005 63.9303 76.4505C63.6303 78.8505 63.0053 80.1255 61.6053 81.2505C61.0803 81.6755 60.2053 82.6005 59.6553 83.3255C59.1053 84.0505 58.2053 85.1755 57.6553 85.8255C56.8803 86.7755 56.6553 87.2505 56.6553 88.0005C56.6553 88.5255 56.5553 89.0505 56.4053 89.1255C56.2803 89.2005 56.1553 89.7505 56.1803 90.3255L56.2053 91.3755L56.5053 90.2505C57.2803 87.4505 58.5553 85.9005 59.9303 86.0505C60.6303 86.1005 60.7803 86.2505 60.8553 86.7505C61.0053 88.3255 61.4553 89.2505 62.3803 89.9755C63.5553 90.9255 64.0053 90.9255 65.2053 90.1255C66.4553 89.2755 67.6553 89.0255 67.6553 89.6005C67.6553 90.5255 66.5553 93.4255 65.9553 94.0505C65.3803 94.6755 65.3553 94.8505 65.5053 96.2505C65.7053 97.9005 65.4553 98.5005 64.6553 98.5005C63.8553 98.5005 63.5803 97.8255 63.6053 95.8255C63.6303 93.6755 63.4553 93.7005 62.7053 95.8755C61.5553 99.2755 61.3803 100 61.6553 100.5C61.9803 101.1 61.9803 102.5 61.6553 102.5C61.5303 102.5 61.3303 102.3 61.1803 102.075C60.9803 101.7 60.9303 101.725 60.7553 102.375C60.3553 103.9 60.5303 105.325 61.2303 106.35C61.6053 106.875 61.9053 107.55 61.9053 107.825C61.9053 108.1 61.5053 109.125 61.0303 110.1C60.5553 111.075 60.1053 112.375 60.0053 112.975C59.8303 114 59.8553 114.05 60.3303 113.775C60.7803 113.55 60.8803 113.6 60.9803 114.05C61.0803 114.425 60.9803 114.7 60.6053 114.95C60.1553 115.275 60.1053 115.475 60.2553 116.875C60.3303 117.725 60.6053 118.975 60.8303 119.625C61.1303 120.575 61.1553 120.925 60.9303 121.3C60.6803 121.7 60.8303 122 62.0053 123.375C63.0053 124.575 63.4053 125.25 63.5303 126.05C63.6053 126.65 63.8053 127.376 63.9803 127.701C64.2053 128.175 64.1553 128.45 63.7803 129.175C63.5053 129.65 63.2803 130.625 63.2553 131.35C63.2303 132.05 63.0803 133.875 62.9053 135.375C62.6303 137.975 62.6553 138.226 63.1803 139.951C63.8553 142.101 64.7553 143.05 67.9053 144.85C70.8303 146.55 72.1303 148.35 71.8553 150.275C71.7803 150.825 71.6553 150.876 70.5803 150.826C68.9803 150.775 66.4803 149.575 64.9303 148.125C64.0303 147.275 63.4303 146.925 62.7303 146.85C61.8553 146.725 61.7553 146.775 61.4053 147.55C61.0553 148.325 60.9803 148.375 59.8803 148.3C58.8303 148.225 58.6803 148.275 58.0303 149.15C57.4553 149.9 57.3803 150.15 57.6053 150.525C58.2053 151.5 57.8553 152.525 57.1553 151.875C56.7803 151.55 56.6803 151.575 56.1553 152.125L55.5803 152.75L56.1053 153.326C56.4053 153.65 56.6553 154.025 56.6553 154.15C56.6553 154.675 53.7553 157.05 51.4303 158.425C51.3803 158.45 51.2053 159.175 51.0303 160.05C50.8303 160.925 50.6053 161.85 50.5053 162.1C50.3553 162.5 50.4053 162.551 50.8553 162.451C51.6803 162.225 51.6053 163.326 50.8053 163.701C50.3803 163.9 50.1303 164.25 50.0053 164.875C49.7553 166.275 50.0803 167.35 51.1803 168.6C51.7303 169.225 52.5553 170.5 53.0303 171.425C54.6553 174.775 57.2803 177.475 60.4803 179.05C62.0303 179.825 62.8303 179.925 64.5803 179.625C65.4553 179.475 65.6803 179.3 66.0303 178.5C66.2803 177.975 66.8553 177.176 67.3303 176.701C67.8053 176.251 68.3553 175.55 68.5803 175.175C68.9053 174.5 68.8803 174.375 68.2553 173.175C67.8803 172.45 67.3303 171.525 67.0053 171.1C66.2553 170.125 66.2553 169.3 67.0053 167.8C67.5303 166.75 67.5553 166.55 67.2553 166.125C67.0553 165.875 66.9053 165.576 66.9053 165.475C66.9053 165.15 67.7303 165 68.0553 165.275C68.3053 165.475 68.5303 165.45 68.9553 165.15C69.9053 164.475 70.3553 164.65 71.0303 166C71.3803 166.675 72.0803 167.9 72.6053 168.701C73.1303 169.525 73.8053 170.85 74.1053 171.65C74.4553 172.575 75.0803 173.576 75.8053 174.326C77.1053 175.676 77.3303 175.65 78.1803 173.951C79.0303 172.301 80.3553 171 81.2553 170.975C81.6803 170.951 82.3053 170.875 82.6553 170.775C83.5803 170.5 84.2553 171.076 85.7053 173.225C87.9053 176.5 89.4053 178.2 90.3553 178.525C91.4053 178.875 93.7803 178.65 94.5803 178.125C94.9303 177.875 95.2303 177.301 95.4303 176.326C95.6053 175.525 96.0053 174.626 96.3053 174.326C96.9053 173.751 98.3553 173.25 99.5553 173.25H100.33L100.205 171.826C100.13 170.85 99.8803 170.076 99.4553 169.451C98.9053 168.6 98.8553 168.3 98.9553 166.9C99.0553 165.75 99.2553 165.051 99.6803 164.451C100.105 163.876 100.28 163.25 100.305 162.375C100.355 160.55 100.355 160.55 100.88 160.25C101.605 159.875 102.105 160.201 102.205 161.076C102.255 161.576 102.405 161.875 102.655 161.875C102.93 161.875 103.055 161.501 103.105 160.326C103.18 158.85 103.205 158.75 103.78 158.75C104.555 158.75 104.555 158.576 103.855 157.826L103.33 157.25H104.205C104.705 157.25 105.23 157.425 105.405 157.625C105.98 158.3 107.155 158.075 108.53 157C109.23 156.45 110.18 155.875 110.63 155.725C111.48 155.425 111.93 154.775 112.055 153.675C112.155 152.95 113.455 151.125 114.055 150.9C114.23 150.825 114.555 151.025 114.755 151.3C115.255 152 115.48 151.75 115.155 150.9C114.805 149.95 114.83 149.8 115.43 149.5C116.08 149.15 116.655 149.575 116.655 150.4C116.655 150.875 116.78 151 117.255 151C117.58 151 118.155 151.25 118.505 151.525L119.205 152.076L120.155 151.525C121.205 150.925 122.28 150.875 124.105 151.275C124.83 151.45 125.83 151.5 126.555 151.375C127.58 151.225 127.955 151.025 128.905 150C129.53 149.35 130.755 148.375 131.63 147.875L133.205 146.951L135.755 147.05C138.13 147.125 138.38 147.175 139.605 147.975L140.905 148.8L141.355 148.25C141.705 147.825 141.93 147.75 142.505 147.9C143.13 148.05 143.155 148.1 142.83 148.451C142.48 148.775 142.58 148.9 143.53 149.625C144.98 150.725 145.505 150.875 146.38 150.35C147.055 149.951 147.08 149.876 146.705 149.576C146.33 149.301 146.33 149.225 146.655 149C147.255 148.625 147.555 148.7 148.005 149.4L148.43 150.025L149.255 149.3C149.705 148.9 150.655 148.375 151.38 148.125C152.855 147.575 153.005 147.275 151.855 147.225C151.405 147.201 151.23 147.15 151.48 147.076C151.705 147.025 151.905 146.85 151.905 146.725C151.905 146.425 154.305 146.425 154.88 146.75C155.305 146.975 157.83 149.85 162.78 155.75C163.88 157.05 165.455 158.9 166.28 159.875C167.105 160.85 168.28 162.225 168.905 162.975C169.53 163.725 171.055 165.525 172.305 166.975C173.555 168.425 175.855 171.15 177.43 173.025C182.83 179.45 185.53 182.625 186.08 183.25C186.705 183.925 186.83 185.175 186.355 185.8C185.93 186.325 180.255 190.425 176.53 192.925C168.255 198.425 156.105 204.75 153.805 204.75C152.83 204.725 152.805 204.725 153.28 204.35C153.705 204.025 153.73 203.95 153.405 203.75C152.655 203.275 151.055 203.5 149.78 204.25C149.105 204.65 148.28 205 147.955 205C147.655 205 146.73 205.275 145.905 205.6C145.08 205.951 144.405 206.175 144.405 206.125ZM96.9053 180.5C97.0303 180.5 97.1553 180.4 97.1553 180.275C97.1553 179.975 95.4303 180.65 94.9053 181.15C94.6803 181.375 94.9553 181.3 95.5803 181C96.1553 180.725 96.7553 180.5 96.9053 180.5ZM105.405 164.525C105.405 164.25 104.63 163.925 104.43 164.125C104.355 164.2 104.455 164.375 104.655 164.5C105.13 164.8 105.405 164.8 105.405 164.525ZM41.9553 122.425C41.5553 121.425 41.1553 120.4 41.0553 120.15C40.9803 119.9 40.8553 119.725 40.8053 119.775C40.6053 119.975 41.3303 122.65 41.9053 123.875C42.7803 125.8 42.8303 124.575 41.9553 122.425ZM36.3803 118.576C37.0303 117.55 37.6553 116.9 38.3053 116.6C38.9303 116.3 39.2303 115.975 39.1803 115.75C38.6803 113.975 38.9803 113.3 39.9053 114.125C40.2553 114.45 40.4053 114.425 41.1803 114.05L42.0303 113.625L40.9803 112.825C40.3803 112.375 39.7303 112 39.5303 112C39.0803 112 39.0803 112.125 39.4053 112.775C39.6303 113.2 39.5803 113.25 39.0053 113.25C38.5803 113.25 38.3053 113.1 38.2303 112.75C38.0303 111.95 37.7053 112.15 37.0303 113.5C36.2303 115.05 34.7553 120.725 35.2803 120.225C35.3303 120.15 35.8303 119.425 36.3803 118.576ZM42.1553 117.875C42.1553 116.975 42.1053 116.25 42.0303 116.25C41.6553 116.25 41.4053 117.4 41.5553 118.375C41.8053 120.05 42.1553 119.725 42.1553 117.875ZM50.8303 118.375C50.9803 117.9 51.0053 117.5 50.9053 117.5C50.6303 117.5 50.5053 117.701 50.3053 118.576C50.0803 119.576 50.5303 119.4 50.8303 118.375ZM47.5553 116.75C46.9803 114.35 46.8303 113.15 47.0303 113.075C48.2303 112.65 48.0553 112 46.7303 112C45.5553 112 43.1303 113.45 43.3053 114.05C43.3803 114.275 43.3053 114.525 43.1553 114.625C42.6303 114.95 42.9303 115.225 43.7303 115.1C44.8053 114.95 45.1553 115.225 45.3303 116.4C45.4553 117.375 45.4553 117.375 46.5803 117.375C47.6303 117.375 47.6803 117.35 47.5553 116.75ZM3.80528 90.9505C4.03028 90.5255 4.53028 89.8755 4.95528 89.5005C5.55528 88.9505 5.68028 88.6505 5.60528 87.9755L5.53028 87.1255L5.10528 87.8755C4.88028 88.3005 4.35528 89.0005 3.93028 89.4505C3.43028 89.9755 3.15528 90.5505 3.15528 91.0255C3.15528 91.9505 3.30528 91.9505 3.80528 90.9505ZM23.6803 39.6755C23.3553 39.3505 23.3053 40.0505 23.6053 41.0005C23.7803 41.6005 23.7803 41.5755 23.8553 40.7755C23.9053 40.3255 23.8303 39.8255 23.6803 39.6755Z" fill="#2FAB66"/>
<path d="M297.908 205C297.908 204.875 298.083 204.75 298.283 204.75C298.558 204.75 298.658 204.475 298.658 203.85C298.658 203 298.608 202.95 298.033 203.1C297.508 203.225 297.408 203.175 297.408 202.725C297.408 202.425 297.683 201.975 298.033 201.7C298.583 201.275 298.658 201 298.658 199.775C298.658 197.775 299.008 196.95 300.083 196.375C300.583 196.1 301.433 195.275 302.008 194.5C302.558 193.75 303.583 192.55 304.308 191.875C305.183 191 305.633 190.35 305.758 189.725C305.983 188.475 305.758 188.075 304.783 187.9C304.308 187.8 303.783 187.575 303.583 187.4C303.408 187.225 302.883 186.875 302.433 186.65C301.983 186.4 301.658 186.175 301.708 186.125C301.758 186.075 302.433 186.2 303.233 186.375C304.008 186.55 304.658 186.675 304.658 186.625C304.658 186.6 304.033 186.25 303.258 185.875C301.558 185.05 301.233 184.45 301.633 182.9C302.108 180.975 302.008 180.125 301.133 179.25C300.708 178.825 300.008 178.3 299.608 178.1C298.933 177.75 298.833 177.75 298.433 178.1C298.183 178.325 297.608 178.5 297.158 178.5H296.333L296.858 177.925C297.583 177.15 297.558 177 296.608 177C295.208 177 291.308 176.225 290.733 175.85C290.408 175.65 290.158 175.325 290.158 175.15C290.158 174.7 287.958 172.85 286.883 172.4C286.408 172.2 285.308 171.9 284.408 171.725C282.583 171.375 281.808 170.725 281.433 169.275C280.633 166.225 280.158 163.725 280.208 162.825C280.233 162.25 280.058 161.575 279.833 161.225C279.258 160.425 279.308 159.425 279.983 157.5C280.483 156.05 280.533 155.575 280.383 153.2C280.308 151.7 280.158 150.425 280.083 150.325C279.983 150.25 279.758 150.325 279.583 150.55C279.333 150.85 279.183 150.875 278.708 150.625L278.133 150.325L278.858 149.6C279.283 149.2 279.658 148.475 279.758 147.95C279.858 147.375 280.283 146.675 280.908 146.025C281.583 145.35 281.908 144.775 281.908 144.3C281.908 143.025 282.183 142.625 283.508 141.925C284.233 141.55 285.208 140.9 285.683 140.5C286.483 139.825 286.508 139.775 286.083 139.45C285.808 139.225 285.683 138.95 285.808 138.675C286.008 138.15 286.358 138.125 286.958 138.675C287.208 138.9 287.433 139.025 287.483 138.975C287.758 138.575 289.008 136.6 289.858 135.225C290.583 134.05 290.833 133.4 290.733 132.95C290.558 132.1 291.383 131 292.733 130.225C293.308 129.9 294.158 129.4 294.633 129.075C295.108 128.75 295.883 128.4 296.383 128.25C297.058 128.05 297.558 127.625 298.408 126.475C299.408 125.125 300.208 124.5 300.933 124.5C301.083 124.5 301.083 124.65 300.933 124.95C300.733 125.325 300.858 125.375 302.283 125.375C303.708 125.375 303.908 125.3 304.608 124.575C305.483 123.625 305.508 123.625 307.333 124.15C308.458 124.475 308.908 124.5 309.983 124.25C311.783 123.825 313.033 123.075 313.758 122.025C314.933 120.25 318.008 119 321.258 119C322.183 119 324.658 117.9 324.658 117.475C324.658 117.375 324.483 117.225 324.258 117.15C323.908 117.025 323.908 116.95 324.283 116.575C324.683 116.175 324.758 116.175 325.383 116.575C325.733 116.8 326.483 117.225 327.033 117.5C328.308 118.125 329.533 119.075 328.783 118.85C328.283 118.7 328.283 118.725 328.758 119.1C329.333 119.575 329.758 119.625 329.508 119.225C329.408 119.05 329.683 119.125 330.108 119.4C330.633 119.7 330.808 119.925 330.608 120.025C330.008 120.4 331.058 121.15 331.983 121.05C332.458 121 333.183 121.125 333.608 121.35C334.583 121.85 334.908 121.85 334.908 121.375C334.908 121.15 335.158 121 335.558 121C336.058 121 336.158 121.1 336.058 121.45C335.933 121.8 336.258 122.1 337.458 122.8C338.333 123.275 339.683 123.925 340.458 124.25C341.233 124.55 342.058 125.05 342.258 125.375C342.458 125.7 343.058 126.1 343.583 126.275C344.108 126.425 344.983 126.875 345.533 127.25C346.083 127.625 347.633 128.35 348.983 128.875C351.083 129.7 351.408 129.9 351.408 130.425C351.408 130.925 351.308 130.975 350.808 130.85C350.333 130.75 350.183 130.825 350.083 131.3C349.983 131.625 349.683 132 349.383 132.125C349.058 132.275 348.683 132.775 348.533 133.25C348.308 133.95 348.008 134.25 346.933 134.75L345.608 135.375L345.733 136.425C345.883 137.925 346.658 139.25 347.908 140.2C348.883 140.95 349.033 141 349.308 140.65C349.458 140.425 349.783 140.25 350.033 140.25C350.383 140.25 350.433 140.4 350.308 141.075C350.208 141.5 350.158 142.35 350.158 142.925C350.183 143.525 350.058 144.225 349.908 144.475C349.683 144.9 349.833 145.175 350.758 146.225C351.383 146.925 352.033 148 352.283 148.725C352.983 150.825 354.183 151.025 355.033 149.2C355.433 148.325 355.708 148.075 356.458 147.9C358.258 147.45 360.458 148.575 361.058 150.275C361.358 151.075 361.383 151.075 361.533 150.575C361.758 149.825 362.158 150.1 362.158 151C362.158 152 358.308 158.675 354.158 164.875C349.158 172.375 346.758 175.175 340.658 180.55C328.433 191.375 316.158 198.95 302.108 204.4C300.008 205.225 297.908 205.525 297.908 205ZM332.158 121.9C332.158 121.85 331.683 121.55 331.108 121.275C330.508 121 329.433 120.35 328.683 119.875C327.933 119.375 327.233 119.025 327.083 119.075C326.958 119.1 327.383 119.5 328.083 119.95C328.758 120.375 329.583 121.025 329.908 121.375C330.308 121.8 330.758 122 331.333 122C331.783 122 332.158 121.95 332.158 121.9Z" fill="#2FAB66"/>
<path d="M49.4569 191.1C48.4569 190.125 48.7319 190.2 50.2569 191.3C50.8569 191.725 51.0819 192 50.8069 192C50.5819 192 49.9819 191.6 49.4569 191.1Z" fill="#2FAB66"/>
<path d="M198.906 186.35C198.281 186.025 197.456 185.7 197.031 185.625L196.281 185.475L197.006 186.1L197.756 186.725L196.631 186.576C196.006 186.5 195.256 186.2 194.906 185.875C194.556 185.575 193.756 184.975 193.106 184.525C191.981 183.775 191.906 183.65 191.906 182.675C191.931 181.675 192.181 181.325 197.556 175C200.656 171.35 204.906 166.35 207.006 163.9C212.181 157.775 213.531 156.175 217.281 151.775C219.056 149.675 220.906 147.45 221.356 146.85C222.031 145.975 222.381 145.75 222.981 145.75C223.581 145.75 223.656 145.8 223.431 146.1C223.181 146.4 223.306 146.725 224.056 147.8C225.956 150.5 227.331 151.45 227.756 150.35C227.906 149.975 227.956 149.975 228.406 150.375C228.856 150.775 228.881 150.875 228.531 151.25C228.181 151.625 228.181 151.775 228.506 152.55C228.706 153.025 229.031 154.425 229.231 155.675C229.556 157.6 229.731 158.1 230.531 159.15C231.606 160.575 231.631 161.3 230.556 163.525C229.231 166.325 226.556 168.575 223.331 169.525C222.356 169.8 221.306 170.225 220.981 170.425L220.381 170.826L220.906 171.375L221.431 171.925L220.806 172.05C220.431 172.125 220.031 172.025 219.881 171.85C219.506 171.375 218.906 171.425 217.606 171.975C216.106 172.625 214.481 174.6 214.056 176.3C213.881 177.1 211.506 179.85 210.306 180.65C209.856 180.95 209.206 181.625 208.856 182.175C208.506 182.7 207.781 183.35 207.256 183.625C206.731 183.9 206.231 184.151 206.156 184.201C206.081 184.25 206.231 184.4 206.456 184.525C206.831 184.725 206.856 184.85 206.606 185.25C206.306 185.725 206.281 185.725 205.781 185.25C205.206 184.725 204.956 184.825 204.356 185.775C204.081 186.225 203.556 186.525 202.806 186.725C201.231 187.125 200.206 187.025 198.906 186.35Z" fill="#2FAB66"/>
<path d="M71.5805 161.301C70.5805 160.201 71.5055 156.651 73.2055 155.076C73.5305 154.776 74.8805 154.026 76.2305 153.401C78.1555 152.501 78.9805 152.251 80.0055 152.251C80.7055 152.251 82.2555 151.976 83.4305 151.626C86.2055 150.801 86.9055 150.801 86.9055 151.601C86.9055 152.451 86.4805 153.501 86.1305 153.501C85.5055 153.501 84.2055 154.326 83.9555 154.876C83.6305 155.576 82.8805 155.701 82.4055 155.126C81.8055 154.401 77.7555 155.251 76.2555 156.376C75.7805 156.726 75.0055 157.201 74.5305 157.401C73.6305 157.776 73.4055 158.101 72.9305 159.876C72.7805 160.426 72.5305 161.076 72.3305 161.326C72.0305 161.776 72.0055 161.776 71.5805 161.301Z" fill="#2FAB66"/>
<path d="M88.6562 153.725C88.6562 153.45 88.8813 152.926 89.1562 152.576C89.8563 151.701 89.8063 151.55 88.6562 151.1C88.1062 150.875 87.6562 150.625 87.6562 150.5C87.6562 150.25 90.8312 147.25 91.1062 147.25C91.2312 147.25 91.7562 147.075 92.2812 146.85L93.2063 146.475L92.6312 145.85L92.0813 145.25H92.8313C93.3563 145.25 93.8563 145.501 94.4313 146.076C96.0563 147.626 96.2312 147.9 95.9062 148.5L95.6062 149.05L95.0563 148.525L94.4812 147.975L93.8313 149.3C93.4813 150.025 93.1062 150.875 93.0312 151.175C92.8562 151.775 89.6562 154.25 89.0312 154.25C88.8062 154.25 88.6562 154.025 88.6562 153.725Z" fill="#2FAB66"/>
<path d="M76.4062 150.75C76.4062 150.55 77.6812 149.75 78.0312 149.75C78.1063 149.75 78.1562 150.025 78.1562 150.375C78.1562 150.925 78.0562 151 77.2812 151C76.8063 151 76.4062 150.9 76.4062 150.75Z" fill="#2FAB66"/>
<path d="M75.0579 148.775C74.2329 147.875 75.2579 147.375 76.3329 148.125C76.6579 148.35 76.8329 148.675 76.7579 148.875C76.5329 149.4 75.5579 149.35 75.0579 148.775Z" fill="#2FAB66"/>
<path d="M96.6562 145.15C96.6562 144.525 97.6813 143.5 98.3063 143.5C98.7813 143.5 98.9062 143.625 98.9062 144.1C98.9062 144.45 98.7312 144.9 98.5062 145.1C98.0312 145.6 96.6562 145.625 96.6562 145.15Z" fill="#2FAB66"/>
<path d="M365.155 143.05C365.155 142.775 364.88 142.375 364.53 142.15C363.83 141.675 363.755 141.175 364.255 139.975C364.43 139.5 364.655 138.026 364.755 136.701C364.905 134.351 364.905 134.25 364.405 134.25C364.08 134.25 363.905 134.075 363.905 133.775C363.905 133.4 363.68 133.276 362.905 133.201C362.255 133.151 361.88 133.226 361.78 133.451C361.705 133.675 361.405 133.725 360.78 133.6C360.23 133.5 359.755 133.55 359.53 133.75C359.28 133.95 358.705 134.026 357.905 133.951C356.73 133.826 356.605 133.875 356.13 134.55C355.455 135.5 354.68 135.401 354.305 134.326C353.93 133.226 353.68 133.05 353.255 133.625C352.93 134.05 352.855 134.075 352.63 133.75C352.505 133.55 352.455 132.975 352.53 132.475C352.63 131.775 352.555 131.525 352.255 131.4C351.68 131.175 351.905 130.101 352.505 130.201C352.78 130.25 353.13 130.125 353.28 129.9C353.73 129.325 354.605 129.65 354.48 130.35C354.38 130.875 354.53 130.975 356.505 131.475C357.68 131.75 358.705 132 358.78 132C358.83 132 359.08 131.6 359.28 131.1C359.68 130.125 359.655 130 358.655 127C358.405 126.25 357.98 125.075 357.68 124.375C357.405 123.7 357.105 122.9 357.005 122.625C356.83 122.175 356.805 122.201 356.705 122.826C356.63 123.401 356.555 123.475 356.255 123.225C355.78 122.825 355.805 121.95 356.405 119.8C356.98 117.725 357.03 116.9 356.605 116.575C356.43 116.425 355.28 116.25 354.03 116.15L351.78 115.975L350.53 114.775C348.78 113.075 348.355 113.025 346.93 114.4L345.78 115.525L343.53 115.475C341.855 115.425 341.03 115.525 340.28 115.85C339.73 116.075 339.055 116.35 338.78 116.475C338.505 116.6 337.83 117.55 337.305 118.6C336.505 120.15 336.23 120.5 335.755 120.5C335.23 120.5 335.18 120.425 335.43 119.85C335.555 119.475 335.63 119.15 335.605 119.125C335.555 119.075 334.93 119.15 334.18 119.275C332.53 119.525 331.33 119.276 330.105 118.451C329.605 118.101 328.755 117.75 328.205 117.65C326.98 117.475 326.58 117 326.405 115.55C326.305 114.5 326.155 114.275 325.105 113.5C323.73 112.5 323.63 111.975 324.53 110.75C324.88 110.275 325.155 109.675 325.155 109.375C325.155 108.8 325.73 108.175 327.28 107.15C328.28 106.5 329.08 105.575 330.805 103.075C331.705 101.775 331.755 101.75 332.955 101.75C334.33 101.75 334.405 101.8 338.305 105.05C339.43 106 340.405 106.75 340.505 106.75C340.58 106.75 340.655 106.525 340.655 106.25C340.655 105.825 340.73 105.8 341.23 106.025C341.68 106.225 341.78 106.45 341.705 107.025C341.655 107.425 341.68 107.75 341.78 107.75C342.23 107.75 345.005 105.05 345.33 104.3C345.53 103.825 345.68 102.8 345.68 102C345.705 99.9755 344.58 97.6505 344.23 98.9755C344.13 99.4005 344.03 99.4505 343.755 99.2255C343.305 98.8755 343.305 97.9505 343.755 96.5005C344.005 95.6755 344.23 95.3505 344.63 95.3005C345.03 95.2255 345.155 95.3505 345.155 95.7255C345.155 96.1005 345.43 96.3755 346.155 96.6505C346.705 96.8755 347.43 97.4005 347.755 97.8255L348.355 98.6005L349.255 97.8005C349.755 97.3505 350.23 97.0005 350.28 97.0005C350.355 97.0005 350.68 97.4505 351.03 98.0005C351.655 98.9755 351.705 99.0005 353.055 99.0005C353.805 99.0005 354.68 98.8505 354.98 98.7005C355.305 98.5005 356.48 98.3755 357.83 98.3755C359.68 98.3755 360.23 98.3005 360.555 97.9505C360.98 97.5505 360.98 97.4755 360.58 97.0505C360.355 96.8005 360.23 96.5005 360.33 96.4255C360.58 96.1505 362.105 96.2255 362.28 96.5005C362.53 96.9005 364.83 98.0005 365.38 98.0005C365.68 98.0005 366.355 98.1755 366.93 98.4255C367.93 98.8005 368.005 98.8005 368.305 98.3755C368.48 98.1255 368.705 97.4505 368.805 96.8505C368.93 96.0005 369.18 95.5505 370.055 94.7505C371.055 93.8255 371.255 93.7505 372.605 93.7505C373.48 93.7505 374.255 93.9005 374.555 94.1005C375.005 94.4505 374.98 94.5255 373.905 95.6255C373.28 96.2505 372.43 97.0005 372.005 97.2755C371.08 97.8255 370.805 98.6755 371.155 99.6505L371.43 100.35L371.93 99.6005C372.205 99.2005 372.53 98.6255 372.655 98.3255C372.905 97.7005 373.08 97.6505 374.505 97.9755C375.355 98.1755 375.48 98.1505 375.58 97.7255C375.655 97.4755 375.855 97.2505 376.055 97.2505C376.83 97.2505 376.105 107.375 374.755 115.5C373.455 123.275 370.68 132.8 367.555 140.125C366.505 142.65 366.08 143.401 365.68 143.451C365.305 143.526 365.155 143.4 365.155 143.05ZM365.88 131.4C366.305 130.6 366.655 129.7 366.655 129.4C366.655 128.475 365.655 125.2 365.155 124.475C364.855 124.075 364.655 123.375 364.655 122.701C364.63 121.176 364.005 118.475 363.605 118.225C363.055 117.875 362.255 117.976 361.855 118.451C361.53 118.776 361.455 119.5 361.455 121.8C361.455 124.5 361.505 124.825 362.055 125.625C362.38 126.125 362.655 126.725 362.655 126.975C362.655 127.225 362.93 128.05 363.28 128.826C364.08 130.55 364.205 131.95 363.58 132.35C363.105 132.625 363.055 132.601 362.23 131.326C361.93 130.901 361.905 130.9 361.405 131.475C361.13 131.8 360.905 132.15 360.905 132.25C360.905 132.5 364.705 133.225 364.955 133.025C365.055 132.95 365.455 132.225 365.88 131.4ZM375.405 103.375C375.405 103.175 375.305 103 375.155 103C375.03 103 374.905 103.175 374.905 103.375C374.905 103.575 375.03 103.75 375.155 103.75C375.305 103.75 375.405 103.575 375.405 103.375ZM375.405 101.475C375.405 100.8 374.955 100 374.58 100C374.405 100 374.08 100.175 373.805 100.375C373.355 100.7 373.38 100.75 374.055 101.35C374.93 102.125 375.405 102.175 375.405 101.475Z" fill="#2FAB66"/>
<path d="M3.20535 125.75C2.75535 125.025 2.83035 124.5 3.40535 124.5C3.80535 124.5 3.90535 124.675 3.90535 125.375C3.90535 126.35 3.68035 126.475 3.20535 125.75Z" fill="#004795"/>
<path d="M350.008 125.75C349.083 125.375 349.108 125.075 350.258 123.325C351.108 122.025 351.558 121.55 352.183 121.375C352.858 121.175 353.058 120.95 353.183 120.3C353.408 119.2 353.683 118.95 354.558 119.05C355.483 119.15 355.408 119.8 354.408 120.875C354.008 121.3 353.508 122.1 353.308 122.675C352.908 123.8 351.708 125.75 351.383 125.75C351.283 125.75 351.058 125.8 350.858 125.85C350.683 125.925 350.283 125.875 350.008 125.75Z" fill="#2FAB66"/>
<path d="M2.53125 122.725C2.5 122 1.68125 119.7 1.65625 118.925C1.65625 118.325 1.75625 118.225 2.23125 118.3C2.68125 118.35 2.80625 118.575 2.95625 119.5C3.33125 122.025 3.10625 123.675 2.53125 122.725Z" fill="#004795"/>
<path d="M342.355 119.35C342.03 119.025 342.48 118.5 343.08 118.5C343.53 118.5 343.68 118.626 343.605 118.951C343.53 119.376 342.655 119.675 342.355 119.35Z" fill="#2FAB66"/>
<path d="M352.658 96.8505C351.483 96.2005 350.133 95.4755 349.658 95.2255C349.183 94.9505 348.533 94.7505 348.208 94.7505C347.408 94.7505 346.158 94.0755 346.158 93.6255C346.158 93.0505 347.008 92.7505 348.533 92.7505H349.933L349.408 92.0755L348.858 91.3755L349.383 91.0255C350.108 90.5505 350.058 90.4255 348.908 89.6505C347.808 88.9255 346.908 88.8005 346.908 89.3755C346.908 89.6005 346.683 89.7505 346.283 89.7505C345.658 89.7505 345.458 89.4005 345.908 89.1255C346.383 88.8255 345.933 88.5755 344.658 88.4005C343.958 88.3005 343.233 88.1755 343.033 88.1005C342.558 87.9005 342.508 86.1005 342.983 85.9255C343.208 85.8505 343.158 85.7255 342.858 85.4755C342.483 85.1755 342.483 85.0755 342.783 84.6505C343.108 84.2005 343.158 84.2005 343.858 84.7255C344.858 85.4255 345.158 85.3755 345.158 84.5505C345.158 84.1755 345.333 83.6005 345.558 83.2755C345.883 82.8255 346.133 82.7255 346.708 82.8505C347.308 82.9755 347.483 82.9005 347.583 82.5005C347.758 81.8255 348.658 81.8255 348.658 82.5005C348.658 82.9255 348.833 83.0005 349.683 83.0005C350.508 83.0005 350.858 83.1505 351.433 83.7755C352.733 85.1755 352.358 87.0005 350.783 87.0005C350.308 87.0005 349.158 87.9255 349.158 88.3005C349.158 88.7005 350.933 89.4505 352.208 89.6005C353.458 89.7755 353.658 89.7255 353.883 89.2755C354.308 88.5005 354.208 87.3755 353.683 86.9005C353.408 86.6505 353.133 85.9505 353.033 85.2255C352.883 84.1005 352.908 83.9255 353.508 83.3755C353.883 83.0505 354.158 82.5005 354.158 82.1505C354.158 81.4255 354.333 81.3005 356.033 80.7005C357.833 80.0755 358.483 80.1255 359.408 81.0005C360.083 81.6255 360.158 81.8255 359.908 82.1255C359.733 82.3255 359.433 82.5005 359.258 82.5005C358.708 82.5005 358.858 82.9005 359.533 83.2005C360.033 83.4255 360.158 83.6755 360.158 84.3755C360.158 85.1005 360.033 85.3005 359.483 85.5255C358.133 86.0505 358.033 86.1755 357.983 87.1505C357.808 91.2505 357.708 92.1755 357.483 92.6255C357.133 93.3255 357.308 93.6755 358.433 94.4005C359.133 94.8255 359.408 95.1755 359.408 95.6255C359.408 96.3255 359.333 96.3505 358.658 96.0005C358.333 95.8255 357.833 95.8505 357.058 96.0505C356.058 96.3005 355.933 96.4255 355.858 97.1005C355.758 98.2255 355.108 98.1755 352.658 96.8505Z" fill="#2FAB66"/>
<path d="M345.481 93.5254C345.506 92.8254 345.656 92.3754 345.881 92.3004C346.131 92.2004 346.181 92.3004 346.031 92.6504C345.931 92.9254 345.756 93.4754 345.631 93.8754C345.456 94.5254 345.456 94.5004 345.481 93.5254Z" fill="#2FAB66"/>
<path d="M375.408 92.1254C375.408 91.8254 375.033 91.7504 373.633 91.7504C371.958 91.7504 371.808 91.7004 371.008 90.9004C370.033 89.9254 369.933 89.2504 370.633 87.7004C370.908 87.1004 371.308 86.1254 371.583 85.5004C372.183 83.9754 373.308 82.7504 374.058 82.7504C374.433 82.7504 374.658 82.6004 374.658 82.3754C374.658 81.7754 375.383 81.9504 375.508 82.5754C375.583 82.8754 375.758 84.5254 375.908 86.2504C376.058 87.9754 376.233 90.0754 376.333 90.9504C376.458 92.4004 376.433 92.5004 375.933 92.5004C375.633 92.5004 375.408 92.3504 375.408 92.1254Z" fill="#2FAB66"/>
<path d="M13.0297 77.4506C13.6297 74.5756 14.1047 73.9256 15.7297 73.9006C16.7547 73.8756 16.7797 73.9006 16.7297 74.6256C16.7047 75.0256 16.4547 75.6506 16.2047 76.0006C15.5797 76.8256 13.7047 78.2506 13.2297 78.2506C12.9547 78.2506 12.9047 78.0756 13.0297 77.4506Z" fill="#2FAB66"/>
<path d="M7.65625 64.3505C7.65625 63.8505 7.78125 63.0005 7.95625 62.4755C8.18125 61.7005 8.35625 61.5005 8.80625 61.5005C9.23125 61.5005 9.35625 61.6005 9.25625 61.8755C9.15625 62.1255 9.25625 62.2505 9.60625 62.2505C10.4812 62.2505 10.7312 63.8005 9.93125 64.2505C9.65625 64.3755 9.15625 64.5005 8.80625 64.5005C8.40625 64.5005 8.15625 64.6505 8.15625 64.8755C8.15625 65.0755 8.05625 65.2505 7.90625 65.2505C7.78125 65.2505 7.65625 64.8505 7.65625 64.3505Z" fill="#2FAB66"/>
<path d="M351.831 64.0755C351.581 64.0255 351.431 63.7755 351.456 63.5505C351.506 63.2505 351.281 63.1005 350.531 62.9755C349.706 62.8755 349.231 62.5255 347.856 61.1255C346.906 60.1755 346.156 59.3255 346.156 59.2255C346.156 59.1255 346.331 59.0005 346.531 58.9005C346.731 58.8255 346.906 58.4755 346.906 58.1505C346.906 57.7755 347.106 57.4005 347.406 57.2505C348.056 56.9005 348.031 56.6505 347.281 56.2505C346.931 56.0755 346.656 55.7005 346.656 55.4505C346.656 55.0755 346.856 55.0005 347.981 55.0005C349.531 55.0255 350.156 55.4255 350.381 56.5505C350.531 57.2255 350.681 57.4005 351.281 57.4505C351.706 57.5005 352.181 57.6755 352.356 57.8255C352.531 57.9755 352.656 57.9755 352.631 57.8505C352.606 57.7255 352.606 57.4255 352.631 57.1755C352.681 56.4505 353.631 57.2255 353.706 58.0755C353.781 58.7005 354.056 58.9755 355.531 59.8005C357.481 60.9005 357.581 61.0255 357.806 62.2005C357.931 62.8505 357.856 63.1505 357.381 63.6505C356.681 64.4005 355.631 64.4255 353.906 63.7505C352.656 63.2505 352.656 63.2505 352.656 63.7505C352.656 64.2505 352.606 64.2755 351.831 64.0755Z" fill="#2FAB66"/>
<path d="M10.833 62.8255C10.533 62.5255 10.658 60.7505 11.008 60.0505C11.583 58.9255 12.783 57.9505 13.433 58.0505C13.933 58.1005 14.033 58.2505 13.983 58.9755C13.883 61.3755 12.958 63.0005 11.683 63.0005C11.308 63.0005 10.908 62.9255 10.833 62.8255Z" fill="#2FAB66"/>
<path d="M357.155 59.7256C356.73 59.4006 356.705 59.3006 357.03 59.4756C357.855 59.9006 358.305 60.2506 358.03 60.2506C357.905 60.2506 357.505 60.0006 357.155 59.7256Z" fill="#2FAB66"/>
<path d="M14.6562 59.5255C14.6562 59.2755 15.0813 58.5756 15.6063 58.0006C16.5063 57.0006 16.5813 56.9506 16.9813 57.3506C17.9813 58.3506 17.0563 60.0006 15.4813 60.0006C14.8313 60.0006 14.6562 59.9005 14.6562 59.5255Z" fill="#2FAB66"/>
<path d="M10.4062 56.6505C10.4062 56.1755 10.5062 55.7255 10.6062 55.6505C10.7062 55.5755 10.9563 54.9505 11.1562 54.2755C11.4312 53.2755 11.6063 53.0005 12.0063 53.0005C12.4813 53.0005 12.5312 53.1505 12.5312 54.3255C12.5312 55.5005 12.4312 55.7005 11.5562 56.5755C11.0312 57.0755 10.5563 57.5005 10.5063 57.5005C10.4563 57.5005 10.4062 57.1255 10.4062 56.6505Z" fill="#2FAB66"/>
<path d="M14.458 55.7005C14.508 55.1005 14.758 54.7505 15.383 54.3005C16.383 53.6505 17.008 53.6755 17.108 54.3755C17.183 55.0755 15.783 56.5005 15.008 56.5005C14.458 56.5005 14.383 56.4005 14.458 55.7005Z" fill="#2FAB66"/>
<path d="M13.6562 53.1006C13.6562 52.4506 14.1313 51.7756 14.9062 51.3756C16.2812 50.6506 17.0563 51.0256 16.6313 52.1756C16.2563 53.2256 13.6562 54.0256 13.6562 53.1006Z" fill="#2FAB66"/>
<path d="M353.406 51.2755C353.406 50.8755 353.056 50.7255 350.981 50.3755C349.631 50.1255 347.756 49.6005 346.781 49.2005C345.831 48.8005 344.856 48.4005 344.656 48.3255C344.456 48.2255 344.781 48.6005 345.406 49.1005C346.031 49.6255 346.581 50.1005 346.656 50.1755C346.706 50.2255 346.456 50.1505 346.081 50.0255C345.681 49.8755 345.131 49.7505 344.856 49.7505C344.581 49.7505 343.581 49.0755 342.656 48.2505C341.181 46.9505 340.831 46.7505 339.956 46.7505C339.181 46.7505 338.931 46.8505 338.831 47.2505C338.756 47.5505 338.481 47.7505 338.181 47.7505C337.831 47.7505 337.656 47.6005 337.656 47.2505C337.656 46.8505 337.481 46.7505 336.781 46.7505C335.506 46.7505 333.606 46.0505 332.981 45.3505C332.531 44.8755 332.181 44.7505 331.206 44.7505H329.981L328.656 40.0755C326.406 32.0755 325.931 30.1505 325.906 29.1255C325.906 28.1505 326.056 27.9755 332.356 21.6755C337.756 16.2755 338.906 15.2505 339.506 15.2505C340.106 15.2505 340.181 15.3005 339.906 15.6255C339.731 15.8505 339.631 16.0505 339.681 16.1005C340.931 17.0505 341.931 17.6755 343.806 18.5755C345.056 19.2005 346.406 20.0005 346.831 20.3505C347.981 21.3255 348.081 21.1255 347.056 19.8755C346.531 19.2505 346.206 18.7505 346.306 18.7505C346.406 18.7505 347.081 19.2005 347.806 19.7755C349.181 20.8505 350.931 23.0505 354.456 28.2505C359.231 35.2505 364.906 45.6505 364.906 47.3755C364.906 48.2005 364.856 48.2755 364.506 47.9755C364.231 47.7505 363.506 47.6755 362.181 47.7005C360.856 47.7505 360.106 47.6505 359.656 47.4005C358.481 46.7005 356.831 45.9755 356.706 46.1255C356.606 46.2005 356.706 46.6255 356.881 47.0755C357.481 48.5255 357.481 49.3255 356.881 50.1005C356.406 50.7005 356.206 50.7755 355.481 50.6755C354.731 50.5505 354.656 50.6005 354.656 51.1505C354.656 51.6255 354.531 51.7505 354.031 51.7505C353.581 51.7505 353.406 51.6255 353.406 51.2755Z" fill="#2FAB66"/>
<path d="M314.656 47.5754C314.656 47.0254 314.706 46.9504 314.906 47.2504C315.306 47.8754 315.656 47.2004 315.481 46.1504C315.381 45.5004 315.181 45.1504 314.856 45.0504C314.606 45.0004 314.406 44.8004 314.406 44.6254C314.406 44.4004 315.556 44.3004 318.981 44.2004C321.481 44.1504 323.956 44.1254 324.481 44.2004C326.281 44.4004 325.231 45.5004 323.256 45.5004C322.756 45.5004 321.906 45.7754 321.331 46.1004C320.756 46.4254 319.556 46.8254 318.656 47.0004C317.756 47.1754 316.806 47.5254 316.506 47.7754C316.231 48.0504 315.706 48.2504 315.331 48.2504C314.756 48.2504 314.656 48.1504 314.656 47.5754Z" fill="#2FAB66"/>
<path d="M141.006 137.625C138.931 137.175 137.581 136.45 136.106 134.975C133.731 132.6 132.906 129.575 132.906 123.25V119L136.931 119.05L140.956 119.125L141.056 123.35C141.156 128.1 141.481 130.3 142.181 131.3C142.656 131.95 144.106 132.575 144.731 132.375C144.906 132.325 145.356 132.225 145.731 132.125C146.281 132.025 146.581 131.7 146.981 130.8C147.531 129.625 147.531 129.475 147.606 112.675L147.681 95.7005L144.931 95.8005C143.406 95.8255 142.156 95.8005 142.156 95.7005C142.156 95.5755 142.156 94.3005 142.156 92.8255V90.1255L152.656 90.1505L163.181 90.1755L163.231 93.1005L163.281 96.0505L160.731 95.8755L158.156 95.7005V110.775C158.156 122.875 158.081 126.375 157.781 128.375C156.781 135.075 152.931 138.025 145.306 137.975C143.781 137.975 141.831 137.8 141.006 137.625Z" fill="#DF0713"/>
<path d="M219.782 137.725C215.282 137.025 211.557 134.975 209.257 131.9C207.257 129.25 206.107 126.375 205.232 121.725C204.682 118.725 204.582 107.2 205.107 104.25C205.907 99.8254 206.682 97.5504 208.232 95.0754C210.632 91.2004 214.357 89.3254 220.157 89.0754C225.807 88.8254 229.407 89.9754 232.307 92.9504L233.857 94.5254L234.032 92.2504L234.207 90.0004L238.057 90.0504L241.932 90.1254V98.7504V107.375H237.857H233.782L233.632 104.5C233.332 98.9754 231.657 96.4504 227.532 95.4004C225.532 94.8754 224.032 94.9004 222.032 95.5254C219.807 96.2004 218.007 97.9254 217.157 100.125C215.357 104.875 214.957 115.6 216.307 122.375C217.582 128.7 220.132 131.525 225.282 132.275C230.032 132.975 234.457 131.05 236.282 127.5C237.507 125.075 237.782 123.65 237.782 119.325V115.25H240.232H242.657L242.682 117.075C242.732 122.1 242.607 124.075 242.157 125.925C240.657 131.825 236.607 135.95 230.907 137.375C228.982 137.875 222.032 138.075 219.782 137.725Z" fill="#DF0713"/>
<path d="M165.505 133.925V130.975L167.955 131.15L170.405 131.326V113.5V95.6755L167.93 95.8505L165.48 96.0255V93.0755V90.1255H175.78H186.08L186.055 93.0755V96.0255L183.605 95.8505L181.155 95.6755V113.45V131.225L186.805 131.3C189.905 131.35 192.505 131.325 192.555 131.275C192.605 131.225 192.655 128.476 192.655 125.201V119.25H196.78H200.905V128.076V136.875H183.205H165.48L165.505 133.925Z" fill="#DF0713"/>
<path d="M107.28 215.225C88.7052 213.925 71.1302 208 54.2052 197.275C43.5552 190.525 32.0552 180.825 27.2802 174.5C25.1302 171.675 20.7802 165.275 18.8302 162.1C14.2552 154.675 9.65523 145.2 7.05523 137.875C6.40523 136.1 5.73023 134.225 5.55523 133.75C5.23023 132.975 4.33023 129.8 3.28023 125.875C2.80523 124.025 2.45523 122.275 2.28023 120.875C2.18023 120.2 2.03023 119.4 1.90523 119.125C1.55523 118.375 0.680235 112.625 0.380235 109.025C0.130235 106.175 -0.0697653 95.1005 0.105235 92.6255C0.430235 87.8005 1.18024 81.5255 1.68024 79.6255C1.83024 79.0755 2.18023 77.4005 2.43023 75.8755C3.85523 67.6505 9.23024 52.7005 13.9802 43.7505C20.0802 32.1755 27.1302 22.0755 34.9802 13.6255L36.6052 11.8755L45.7552 21.0005C50.7802 26.0005 54.9052 30.2755 54.9052 30.4755C54.9052 30.8005 53.6052 35.5755 51.8802 41.6255C51.5052 42.9755 51.2052 44.1255 51.2302 44.1505C51.2552 44.1755 55.1052 44.2505 59.7552 44.3505C64.4302 44.4255 68.2802 44.5505 68.3552 44.6255C68.4302 44.6755 67.7552 46.4755 66.9052 48.6255C65.5302 51.9755 65.3802 52.5755 65.6802 52.8755C65.8802 53.0505 68.0302 53.7255 70.4552 54.3505C72.9052 55.0005 77.7802 56.2755 81.3302 57.2255C84.8802 58.1505 88.8302 59.2005 90.1052 59.5255C91.6052 59.9005 92.4052 60.2255 92.4052 60.4505C92.4052 60.6255 91.4052 67.8755 90.1552 76.5255C88.9302 85.2005 87.9052 92.4505 87.9052 92.6255C87.9052 92.9505 90.4552 93.0005 106.73 93.0005H125.53L125.58 100.075C125.605 103.95 125.705 108.65 125.755 110.5C125.83 112.35 125.955 120.075 126.055 127.625C126.13 135.2 126.28 141.45 126.355 141.525C126.455 141.6 130.98 142.15 136.405 142.725C151.055 144.275 155.505 144.8 155.805 144.975C156.13 145.175 157.18 146.375 174.93 167.35C189.73 184.826 190.03 185.201 189.88 185.35C188.63 186.375 183.455 190.225 180.905 192.025C171.405 198.675 162.255 203.725 152.73 207.525C137.78 213.5 121.755 216.225 107.28 215.225ZM121.78 212.25C126.03 211.825 132.455 210.875 132.255 210.675C132.155 210.575 131.73 210.475 131.305 210.475C130.805 210.451 130.705 210.4 131.03 210.326C131.305 210.275 131.83 210.1 132.205 209.951C132.68 209.775 133.13 209.775 133.755 210C134.955 210.375 137.03 209.826 140.18 208.225C141.53 207.55 142.88 207 143.155 207C143.43 207 143.73 206.825 143.805 206.625C143.905 206.4 144.28 206.25 144.805 206.25C145.28 206.25 146.055 206.075 146.555 205.875C147.955 205.3 147.33 205.85 145.53 206.75C144.63 207.2 143.93 207.625 143.98 207.675C144.105 207.8 147.83 206.475 151.53 205C159.78 201.7 168.205 197.225 176.03 192C180.105 189.25 185.455 185.35 185.705 184.925C185.805 184.725 185.655 184.326 185.33 183.975C184.78 183.375 182.055 180.15 176.68 173.775C175.105 171.9 172.805 169.175 171.555 167.725C170.305 166.275 168.78 164.475 168.155 163.725C167.53 162.975 166.355 161.6 165.53 160.625C164.705 159.65 163.13 157.8 162.03 156.5C156.455 149.85 154.33 147.5 153.83 147.4C153.53 147.35 151.98 147.175 150.405 147C148.83 146.85 147.08 146.676 146.53 146.576C145.53 146.451 145.53 146.451 146.005 146.951C146.455 147.475 146.455 147.475 145.505 147.326C144.98 147.225 144.38 146.975 144.155 146.725C143.78 146.3 139.605 145.751 126.48 144.451L123.68 144.175L123.53 143.15C123.455 142.575 123.38 138.4 123.33 133.85L123.28 125.55L122.48 124.55C122.03 123.975 121.655 123.35 121.655 123.15C121.655 122.625 122.38 122.65 122.83 123.201C123.155 123.601 123.155 117 122.78 98.8755L122.73 95.8755L111.13 95.8255C104.755 95.8005 99.6802 95.8505 99.8552 95.9255C100.38 96.1255 100.18 96.5005 99.5302 96.5005C99.1802 96.5005 98.8302 96.3255 98.7552 96.1255C98.5302 95.5755 85.5552 95.5755 85.0052 96.1255C84.6302 96.5005 83.9052 96.3755 83.9052 95.9255C83.9052 95.7755 84.0802 95.4505 84.3302 95.2005C84.6302 94.8755 85.0302 92.7755 85.8052 87.4255C86.7052 81.1755 86.8052 80.0755 86.5052 79.8505C86.1302 79.5505 86.0052 78.2505 86.3802 78.2505C86.5052 78.2505 86.6802 78.4505 86.7802 78.7005C86.8802 78.9505 87.4802 75.5505 88.1802 70.7505C88.8302 66.1505 89.3052 62.3005 89.2052 62.2255C89.1052 62.1505 86.7802 61.5005 84.0302 60.8005C78.6552 59.4005 71.3552 57.4755 69.8552 57.0505L68.9302 56.8005L69.3052 57.3755C69.7052 57.9755 69.7052 57.9755 68.8802 57.7505C68.4302 57.6255 67.7552 57.2255 67.3802 56.8505C66.9052 56.4005 66.0052 56.0255 64.2552 55.6005C62.8802 55.2505 61.7052 54.9005 61.6052 54.8005C61.5052 54.7005 61.7552 53.8255 62.1302 52.8255L62.8302 51.0505L62.2552 50.3255C61.9302 49.9255 61.6802 49.2755 61.6552 48.8255C61.6552 48.1505 61.5552 48.0255 60.9802 47.9505C60.5302 47.9005 60.2802 47.7255 60.3052 47.5005C60.3302 47.1755 59.4802 47.1005 54.1802 47.0505C50.8052 47.0005 47.9302 46.8755 47.8302 46.7755C47.7302 46.6755 48.2052 44.5255 48.9052 42.0255C49.5802 39.5255 50.1552 37.4005 50.1552 37.3255C50.1552 37.2255 49.8802 37.4255 49.5552 37.7255L48.9302 38.3005L49.2052 37.3505C49.3552 36.8005 49.8052 36.0255 50.2052 35.6005C50.6552 35.1255 51.1052 34.1755 51.4302 33.0005L51.9302 31.1505L44.3052 23.5255L36.6802 15.9005L35.4802 17.2505C33.3802 19.5755 30.3052 23.3505 28.5052 25.7755C27.5552 27.0755 26.5302 28.4755 26.2302 28.8755C24.5552 31.1255 21.7302 35.5755 19.3052 39.7505C17.0802 43.5755 12.7052 52.6005 12.0052 54.7505C11.8052 55.3755 11.4802 56.1505 11.3052 56.5005C10.6552 57.6755 8.55523 63.6255 7.60523 67.0005C4.38023 78.4255 3.20523 85.7505 2.98023 95.8505C2.63023 111.45 5.08024 124.85 11.0802 140.125C12.6052 144.025 17.1552 153.475 19.1052 156.75C19.8052 157.925 20.7302 159.5 21.1802 160.25C22.2552 162.125 26.0302 167.725 28.6302 171.375C32.6052 176.95 39.6552 183.551 48.7302 190.201C50.8302 191.725 51.3802 192 52.2052 192C52.8052 192 53.4552 192.201 53.8052 192.475L54.4302 192.975L53.6302 193.05C52.8802 193.125 52.9802 193.225 55.4302 194.775C63.0552 199.625 72.2052 204.125 79.8802 206.775C81.6302 207.375 83.1552 207.75 83.8802 207.75C84.9552 207.725 85.0052 207.7 84.5552 207.375C83.8552 206.85 84.4802 206.9 85.4552 207.451C85.9052 207.701 87.3052 208.175 88.5302 208.475C90.9802 209.1 93.0302 209.825 94.4052 210.525C95.4552 211.075 100.48 211.875 105.03 212.25C106.83 212.375 108.78 212.55 109.405 212.6C111.13 212.75 118.705 212.525 121.78 212.25ZM88.7802 209.225C88.1052 208.975 87.0802 208.675 86.5302 208.625C85.3052 208.475 85.6052 208.625 87.7052 209.25C89.7802 209.85 90.3552 209.85 88.7802 209.225ZM63.9802 48.3755L64.3802 47.2505H63.5552C63.0802 47.2505 62.3552 47.1755 61.8802 47.0755L61.0552 46.9255L62.1552 48.3255C62.7552 49.1005 63.3302 49.6755 63.4302 49.6005C63.5302 49.5505 63.7802 49.0005 63.9802 48.3755Z" fill="#004795"/>
<path d="M142.929 147.025C142.679 146.875 142.679 146.775 142.904 146.625C143.079 146.525 143.379 146.625 143.604 146.85C143.954 147.175 143.954 147.25 143.654 147.25C143.454 147.25 143.129 147.15 142.929 147.025Z" fill="#004795"/>
<path d="M7.15625 69.5503C7.15625 69.1753 7.85625 68.3753 8.03125 68.5503C8.23125 68.7503 7.70625 69.7503 7.40625 69.7503C7.25625 69.7503 7.15625 69.6503 7.15625 69.5503Z" fill="#004795"/>
<path d="M258.656 213.076C251.681 212.426 247.681 211.85 243.281 210.85C226.206 207.025 209.631 199.05 193.231 186.775C188.606 183.325 188.431 183.15 188.956 182.55C189.156 182.325 193.656 177 198.931 170.75C204.206 164.5 211.031 156.4 214.131 152.75C218.781 147.25 221.131 144.475 222.431 142.925C222.506 142.8 229.181 142 237.256 141.125C245.306 140.25 252.006 139.475 252.131 139.4C252.256 139.3 252.381 135.225 252.431 130.05C252.456 125 252.506 120.15 252.531 119.25C252.581 118.35 252.681 111.725 252.781 104.5C252.906 96.2255 253.056 91.2505 253.231 91.0505C253.431 90.8005 257.156 90.7255 271.956 90.7505C282.131 90.7755 290.481 90.7505 290.531 90.7005C290.581 90.6505 289.581 83.3255 288.306 74.4255C286.681 63.0505 286.056 58.1755 286.256 58.0505C286.406 57.9255 288.781 57.2505 291.531 56.5505C310.831 51.5505 313.156 50.9005 313.156 50.5255C313.156 50.4505 312.431 48.6005 311.556 46.4255C310.056 42.6755 310.006 42.4755 310.506 42.3755C310.806 42.3255 314.606 42.2255 318.981 42.1755C323.356 42.1005 326.981 42.0005 327.056 41.9255C327.181 41.8005 324.156 30.4505 323.606 29.0255C323.406 28.4505 324.031 27.7505 332.581 19.2005C337.631 14.1505 341.856 10.0005 341.956 10.0005C342.206 10.0005 347.556 16.0505 349.856 18.9255C364.656 37.6255 374.281 59.6255 377.406 81.9255C378.756 91.6505 378.556 105.05 376.881 114.625C373.756 132.775 366.481 150.025 354.756 167.125C350.681 173.1 349.006 175.15 345.356 178.625C324.506 198.525 299.231 210.625 273.781 212.875C270.056 213.2 261.181 213.326 258.656 213.076ZM276.031 209.9C280.506 209.375 283.281 208.85 283.956 208.4C284.281 208.2 285.206 207.8 286.031 207.5C286.856 207.2 287.756 206.875 288.031 206.75C288.306 206.625 289.106 206.45 289.781 206.375C290.481 206.275 291.606 205.951 292.331 205.6C293.606 205 294.681 204.75 293.956 205.225C293.706 205.375 293.856 205.475 294.431 205.6C296.081 205.925 305.581 202.25 313.031 198.4C322.781 193.375 331.006 187.675 339.906 179.8C346.006 174.425 348.431 171.6 353.406 164.125C364.356 147.725 371.256 131.15 374.006 114.75C375.231 107.4 375.556 103.175 375.506 96.1255C375.456 87.0505 374.606 79.7755 372.631 71.4005C371.931 68.5005 371.731 67.9255 371.256 67.7505C370.956 67.6255 370.656 67.2755 370.581 66.9755C370.381 66.2505 370.531 66.1005 371.031 66.5005C371.531 66.9005 371.506 66.8255 370.756 64.4255C366.131 49.5255 359.031 35.7505 349.431 23.0005C346.531 19.1505 342.156 14.0005 341.781 14.0005C341.631 14.0005 338.156 17.3755 334.056 21.4755L326.581 28.9505L327.231 31.4005C327.581 32.7755 328.481 36.1005 329.256 38.8005C330.031 41.5255 330.656 43.9505 330.656 44.2255C330.656 44.6505 330.381 44.7255 327.856 44.9005C326.306 45.0255 324.706 45.0755 324.281 45.0505C322.331 44.9255 314.506 45.0505 314.331 45.2255C314.231 45.3255 314.306 45.9005 314.556 46.4755C314.906 47.3505 315.081 47.5005 315.681 47.5005C316.506 47.5005 316.556 47.6505 316.006 48.4505C315.631 48.9755 315.656 49.1255 316.281 50.6255C316.656 51.5005 316.906 52.3755 316.831 52.5505C316.781 52.7255 315.556 53.1505 314.156 53.5005C312.006 54.0005 311.506 54.2255 310.981 54.8755C310.556 55.3505 310.056 55.6505 309.581 55.7005C308.831 55.7505 308.831 55.7505 309.281 55.2505C309.856 54.6255 309.831 54.6255 307.081 55.3505C305.806 55.7005 301.306 56.8755 297.031 58.0005C292.781 59.1255 289.231 60.1005 289.181 60.1505C289.131 60.2005 289.606 63.8755 290.256 68.3005C290.881 72.7505 291.406 76.4755 291.406 76.6005C291.406 76.7505 291.556 76.6505 291.731 76.4255C292.006 76.0255 292.056 76.0255 292.456 76.4755C292.856 76.9505 292.856 77.0005 292.256 77.4755L291.631 77.9755L292.681 85.3005C293.531 91.4505 293.781 92.7255 294.206 93.1755C294.656 93.6505 294.681 93.8005 294.406 94.1255C294.106 94.4755 294.031 94.4755 293.631 94.1005C293.256 93.7505 292.281 93.7005 286.431 93.6755C280.131 93.6255 279.656 93.6505 279.656 94.0755C279.656 94.3755 279.456 94.5005 278.906 94.5005C278.056 94.5005 277.906 94.0755 278.631 93.8005C278.906 93.7005 273.856 93.6255 267.431 93.6255H255.731L255.581 99.6255C255.481 102.925 255.406 108.95 255.406 113C255.406 117.05 255.331 120.65 255.256 121L255.106 121.625L255.631 121L256.156 120.375V121.35C256.156 121.925 255.981 122.525 255.756 122.775C255.406 123.175 255.306 124.4 255.106 130.925C254.981 135.15 254.931 139.326 255.006 140.201C255.106 141.4 255.056 141.8 254.781 141.9C254.606 141.975 249.981 142.525 244.556 143.1C235.556 144.076 234.606 144.225 234.081 144.701C233.456 145.275 232.031 145.525 232.606 144.951C232.781 144.775 232.906 144.575 232.906 144.5C232.906 144.25 224.306 145.301 223.931 145.576C223.756 145.751 222.231 147.5 220.556 149.5C218.906 151.475 217.081 153.625 216.531 154.275C215.981 154.9 214.456 156.675 213.156 158.25C211.856 159.8 209.381 162.725 207.656 164.75C195.906 178.6 192.781 182.325 192.706 182.625C192.656 182.8 193.156 183.325 193.831 183.775C194.481 184.2 195.306 184.825 195.656 185.125C196.756 186.1 205.406 191.85 208.906 193.925C210.756 195.025 213.756 196.7 215.556 197.65C218.606 199.25 218.881 199.35 219.456 199.025C219.981 198.775 220.206 198.75 220.656 199L221.231 199.326L220.681 199.6C220.156 199.9 220.281 199.975 222.331 200.925C225.781 202.55 234.606 205.9 234.806 205.675C234.856 205.65 234.031 205.175 233.006 204.65C231.056 203.65 230.631 203.2 232.306 203.9C232.831 204.125 233.956 204.5 234.781 204.75C235.606 204.975 237.181 205.65 238.306 206.201C239.431 206.751 241.081 207.425 242.006 207.65C243.581 208.075 243.731 208.075 245.256 207.675C247.306 207.125 247.456 207.15 247.356 207.8C247.306 208.15 247.056 208.4 246.656 208.5C245.556 208.75 252.356 209.75 259.406 210.35C261.831 210.55 272.956 210.25 276.031 209.9ZM291.106 207.025C291.706 206.9 292.281 206.725 292.356 206.6C292.656 206.3 290.381 206.75 289.681 207.15C289.231 207.4 289.181 207.475 289.531 207.4C289.806 207.325 290.506 207.15 291.106 207.025Z" fill="#004795"/>
<path d="M234.656 145C234.656 144.675 235.356 144.375 235.606 144.6C235.681 144.7 235.606 144.875 235.406 145C234.906 145.325 234.656 145.3 234.656 145Z" fill="#004795"/>
<path d="M166.53 87.3754C165.58 87.0254 164.755 86.7504 164.73 86.7504C164.68 86.7504 164.655 86.6504 164.655 86.5254C164.655 86.4254 165.705 85.9004 166.98 85.3754C170.58 83.8754 173.58 82.3504 176.18 80.6004C178.205 79.2254 180.105 77.6754 179.28 78.0254C179.155 78.1004 178.255 78.5254 177.28 78.9754C168.255 83.2504 160.755 84.5754 156.755 82.6254C155.28 81.9004 153.405 80.6004 153.405 80.2754C153.405 80.1754 154.155 80.0504 155.105 80.0254C163.255 79.8254 171.455 77.7004 176.605 74.4004C177.205 74.0254 177.655 73.6754 177.605 73.6254C177.555 73.5754 175.955 74.0254 174.03 74.6504C165.955 77.2254 159.53 78.2254 154.355 77.7504C151.48 77.4754 149.655 76.8254 147.68 75.3754C146.48 74.5004 143.98 71.6004 144.205 71.3504C144.255 71.3254 145.23 71.4504 146.405 71.6504C151.83 72.5254 156.455 72.8004 162.53 72.6754C168.955 72.5254 172.63 72.0754 177.405 70.8754C182.855 69.5004 185.98 68.2254 182.855 68.6754C179.455 69.1504 171.405 68.7004 171.405 68.0504C171.405 67.9504 173.23 67.2754 175.48 66.5504C179.505 65.2254 182.98 63.6504 185.08 62.2004C185.705 61.8004 186.155 61.4254 186.105 61.3754C186.055 61.3254 184.055 61.9504 181.655 62.7754C174.43 65.1754 169.105 66.2504 164.405 66.2254C161.855 66.2254 160.155 65.9004 159.98 65.3754C159.955 65.2504 160.73 64.8504 161.73 64.5254C167.205 62.7254 175.28 59.1004 177.08 57.5754L177.78 57.0004L176.405 57.5254C175.655 57.8254 172.78 58.8504 170.03 59.7754C159.655 63.3254 153.88 63.9504 149.68 62.0004C148.705 61.5504 148.155 61.1504 148.305 61.0004C148.43 60.9004 149.48 60.5504 150.655 60.2504C155.355 59.0504 161.405 56.8754 164.98 55.1004C168.13 53.5254 172.33 50.8754 170.48 51.6254C167.53 52.8254 160.13 55.2754 157.28 55.9754C152.58 57.1504 146.755 57.5754 143.205 57.0004C140.455 56.5504 137.805 55.5504 135.88 54.2754C133.73 52.8254 132.53 51.8004 132.755 51.5754C132.83 51.4754 133.905 51.3754 135.105 51.3254C143.355 51.0004 150.055 50.2754 154.63 49.2254C157.03 48.7004 162.23 46.9754 162.055 46.8004C161.98 46.7504 160.93 46.8754 159.73 47.1004C154.03 48.1254 150.48 48.3504 141.405 48.3754C133.63 48.3754 132.33 48.3254 130.905 47.9254C127.78 47.0754 125.63 45.3254 123.205 41.6754C122.58 40.7504 122.13 39.9254 122.205 39.8504C122.28 39.7754 123.955 40.1254 125.93 40.6004C134.455 42.6504 139.93 43.4754 146.53 43.6754C151.58 43.8254 156.905 43.6004 156.905 43.2754C156.905 43.1504 155.48 43.0004 153.73 42.9254C148.205 42.6254 139.155 41.1504 133.03 39.5004C129.055 38.4504 123.73 36.5754 122.23 35.7254C120.655 34.8254 118.88 33.1004 118.03 31.6254C116.955 29.8254 115.305 24.7504 115.755 24.7504C115.83 24.7504 117.28 25.5504 118.955 26.5254C125.605 30.3504 133.305 33.6754 139.555 35.3754C143.555 36.4754 148.03 37.4254 150.155 37.6254L151.78 37.7754L148.53 36.4254C138.055 32.1004 131.855 28.9754 125.78 24.9254C118.405 20.0254 115.055 16.2254 113.805 11.4504C113.58 10.5254 113.43 8.50039 113.38 5.57539C113.305 0.325391 113.405 0.1504 115.255 2.4754C116.905 4.6004 122.505 10.2004 125.755 12.9754C131.105 17.5504 138.18 22.5254 146.155 27.3004C156.88 33.7504 164.78 37.1504 174.28 39.5004C176.53 40.0504 179.18 40.8004 180.18 41.1254C184.13 42.4754 188.705 45.1504 192.255 48.1504C201.755 56.2254 205.905 59.0754 211.555 61.3754C213.005 61.9754 214.255 62.5254 214.33 62.6004C214.405 62.6754 213.955 62.9754 213.33 63.2504C212.68 63.5504 212.155 63.8004 212.155 63.8254C212.155 63.8504 214.33 63.8754 216.955 63.8754C221.455 63.8754 221.88 63.9254 223.255 64.4754C224.955 65.1504 226.905 66.8504 227.53 68.1754C227.93 69.0254 227.93 69.1004 227.555 69.4004C227.18 69.6504 227.28 69.8254 228.405 70.7504C230.155 72.2254 231.155 73.7254 231.33 75.2254C231.405 75.9004 231.405 76.6504 231.305 76.8754C231.155 77.2504 231.055 77.2254 230.33 76.7004C229.205 75.8254 226.855 74.6754 224.78 73.9754C223.405 73.5004 222.53 73.4004 220.655 73.4004C218.605 73.4254 217.93 73.5504 215.555 74.3504C214.03 74.8754 211.405 75.9254 209.68 76.6754C202.68 79.7504 200.605 80.2004 195.655 79.7004C190.805 79.2254 188.505 79.9754 185.18 83.0754C183.155 84.9754 181.13 86.1754 179.43 86.4254L178.53 86.5754L179.43 85.4754C180.555 84.0754 181.88 81.8254 181.405 82.1254C181.205 82.2504 180.13 83.0254 179.03 83.9004C173.83 87.9004 170.605 88.8004 166.53 87.3754ZM220.155 67.6004C220.43 67.3004 220.405 67.1504 220.08 66.8004C219.68 66.4254 219.63 66.4254 219.255 66.8004C218.78 67.2504 218.955 68.0004 219.48 68.0004C219.68 68.0004 219.98 67.8254 220.155 67.6004Z" fill="#004795"/>
<path d="M214.156 59.6254C210.906 58.9504 207.781 57.4254 203.681 54.5004C201.256 52.7754 200.656 52.1754 200.656 51.4754C200.656 51.0754 206.281 45.3754 208.781 43.2754C212.481 40.1504 215.281 38.5254 219.881 36.8754C228.656 33.7504 235.006 29.6754 246.031 20.1254C251.856 15.0754 255.656 10.9004 260.606 4.05037C260.931 3.57537 261.306 3.30037 261.406 3.42537C261.806 3.85037 262.156 6.35038 262.156 8.85038C262.156 13.1004 261.231 15.4004 258.206 18.5504C254.406 22.5254 249.081 26.5254 242.531 30.3004C235.906 34.1254 236.431 33.8004 237.406 33.6004C239.631 33.1754 244.706 31.3004 248.081 29.6504C252.381 27.5254 255.206 25.8254 259.031 23.0254C260.531 21.9004 261.856 21.0004 261.981 21.0004C262.306 21.0004 261.931 23.3754 261.356 25.1004C260.431 27.9254 258.856 29.5754 255.406 31.4504C251.356 33.6254 243.431 36.3254 237.281 37.6254C232.706 38.6004 232.406 38.7504 235.281 38.6254C240.881 38.3254 245.631 37.2754 253.481 34.6254C256.956 33.4504 258.156 33.1504 258.156 33.4004C258.156 34.8004 255.406 38.2504 253.456 39.3254C250.806 40.7754 245.606 41.4754 236.331 41.6754C232.781 41.7504 229.931 41.8754 230.006 41.9254C230.281 42.2004 233.481 42.7254 236.531 43.0254C239.681 43.3004 245.306 43.2004 249.606 42.7754C250.756 42.6754 251.406 42.7004 251.406 42.8504C251.406 43.4004 248.306 46.0254 246.806 46.7254C244.106 48.0254 242.256 48.3504 237.656 48.3504C233.456 48.3504 230.881 48.0004 225.781 46.7754C224.681 46.5004 223.731 46.3254 223.681 46.4004C223.456 46.6004 227.506 48.2754 229.956 48.9754C232.881 49.8254 235.306 50.3254 238.481 50.7754C239.756 50.9754 240.631 51.2004 240.581 51.3754C240.556 51.5004 239.731 52.0254 238.781 52.5004L237.031 53.3754L233.406 53.3504C229.606 53.3254 226.381 52.8504 221.656 51.6504C218.981 50.9504 219.131 51.2754 222.031 52.4754C223.606 53.1254 225.231 53.6504 230.606 55.1504C231.306 55.3504 231.906 55.6004 231.906 55.7004C231.906 56.1004 227.931 56.6004 224.906 56.6004C221.856 56.5754 217.681 56.0004 214.056 55.1004C213.256 54.9004 212.531 54.7754 212.456 54.8504C212.031 55.2754 217.756 57.2254 221.781 58.0004C222.606 58.1754 223.381 58.3754 223.506 58.4504C224.131 58.8004 218.956 60.0254 216.956 59.9754C216.306 59.9754 215.056 59.8004 214.156 59.6254Z" fill="#004795"/>
<path d="M93.7307 210.826C93.4057 210.776 93.1557 210.625 93.1557 210.5C93.1557 210.4 92.9557 210.35 92.7057 210.425C92.4557 210.475 91.1307 210.1 89.7557 209.6C88.4057 209.075 86.8807 208.625 86.4057 208.6C85.9307 208.575 85.2057 208.425 84.7807 208.25C84.1057 207.975 84.0807 207.925 84.5307 207.75C84.9307 207.6 84.6557 207.375 82.9557 206.525C76.8057 203.425 69.5057 198.526 63.1307 193.201L62.0307 192.275L60.2807 192.5C59.3057 192.625 57.2307 192.775 55.6557 192.875C53.0057 193.025 52.7307 193 52.0307 192.525C51.4057 192.075 51.3557 192 51.7807 192C53.1807 191.975 59.8307 191.475 60.2307 191.35C60.6557 191.225 60.6557 191.175 60.3057 190.775C59.7557 190.15 59.8057 190 60.5807 190C60.9557 190 61.5057 190.25 61.8307 190.55L62.4057 191.1L65.2307 190.65C70.3057 189.85 75.3307 188.6 81.1057 186.725C86.0057 185.125 85.6557 185.5 83.8557 183.85C81.0307 181.3 80.7807 181 81.2057 180.6C81.5307 180.275 81.8807 180.5 84.1307 182.525L86.6807 184.8L89.6057 183.625C91.2057 182.975 93.6307 181.925 94.9807 181.35C96.3057 180.75 97.5307 180.25 97.6807 180.25C97.8307 180.25 98.3057 179.975 98.7307 179.65C99.8557 178.8 102.556 177.5 103.156 177.5C104.231 177.5 103.556 178.275 101.531 179.375C99.1557 180.675 93.1057 183.475 89.9807 184.725C88.8307 185.175 87.9057 185.625 87.9057 185.725C87.9057 185.975 93.0307 190 96.5557 192.525C100.481 195.3 105.331 198.325 108.806 200.175L111.431 201.55L113.981 200.525C116.581 199.475 117.506 199.3 117.781 199.75C117.956 200.025 114.906 201.55 113.581 201.875C113.206 201.975 112.906 202.125 112.906 202.225C112.931 202.425 117.656 204.576 121.406 206.076C125.131 207.551 127.981 208.475 131.056 209.275C132.956 209.75 133.306 209.925 133.231 210.275C133.081 210.8 132.481 211.075 132.281 210.75C132.181 210.6 131.856 210.5 131.556 210.5C130.031 210.5 120.256 207 115.081 204.625C113.156 203.725 111.456 203 111.281 203C111.131 203 109.106 203.625 106.806 204.375C101.856 206.025 97.8057 207.026 93.0807 207.826L89.6057 208.4L91.0807 209.05C91.8807 209.425 93.0057 209.9 93.6057 210.125C94.1807 210.375 94.6557 210.65 94.6557 210.775C94.6557 210.9 94.5807 210.975 94.4807 210.975C94.3557 210.95 94.0307 210.875 93.7307 210.826ZM90.1557 207.125C95.7557 206.375 102.731 204.726 107.606 202.951L109.931 202.1L106.981 200.5C102.806 198.2 94.4057 192.525 90.2807 189.25C88.3557 187.7 86.6557 186.4 86.5307 186.35C86.3807 186.3 84.5807 186.8 82.5307 187.475C77.4057 189.175 73.6057 190.15 68.1557 191.25L63.5557 192.175L66.2807 194.326C71.8307 198.726 77.4807 202.375 83.7807 205.675C85.7057 206.675 87.2807 207.5 87.3057 207.5C87.3057 207.5 88.5807 207.325 90.1557 207.125Z" fill="#545454"/>
<path d="M139.156 208.876C139.156 208.801 140.206 208.226 141.481 207.601C142.731 206.951 144.656 205.926 145.756 205.301C147.781 204.151 149.656 203.576 149.656 204.101C149.656 204.651 143.106 208.151 141.006 208.726C139.981 209.026 139.156 209.076 139.156 208.876Z" fill="#545454"/>
<path d="M246.081 208.225C246.281 207.525 246.531 207.4 249.881 206.4C254.581 205 265.381 200.7 265.406 200.225C265.406 200.15 264.131 199.55 262.606 198.875C256.731 196.35 248.731 192.125 242.606 188.325C239.781 186.575 239.506 186.45 238.981 186.775C238.681 186.975 236.481 188.55 234.106 190.275C231.731 192 228.456 194.3 226.856 195.4C225.256 196.475 223.956 197.475 223.981 197.6C224.081 197.95 230.531 201.975 234.456 204.125C236.431 205.225 238.081 206.175 238.156 206.25C238.231 206.325 238.456 206.4 238.656 206.45C238.856 206.5 239.181 206.625 239.406 206.75C240.056 207.15 238.931 207.05 237.381 206.6C235.081 205.925 228.256 202.075 223.281 198.625C222.831 198.3 222.656 198.35 221.656 199C220.481 199.775 220.006 199.9 219.431 199.525C219.181 199.375 219.406 199.1 220.256 198.5C220.906 198.075 221.406 197.625 221.356 197.5C221.306 197.375 219.656 196.075 217.656 194.6C212.181 190.55 205.656 185.25 205.656 184.875C205.656 183.825 206.231 184.175 212.331 189.025C216.281 192.175 222.006 196.45 222.581 196.675C222.931 196.825 232.056 190.5 237.581 186.3L238.406 185.7L235.456 183.7C232.081 181.375 223.831 175.2 221.331 173.125C219.756 171.825 219.431 171.275 220.081 171.075C220.231 171.025 221.231 171.675 222.306 172.5C230.681 178.975 238.756 184.75 239.431 184.75C240.206 184.75 260.406 168.125 260.406 167.475C260.406 167.375 258.981 166.25 257.231 164.975C253.106 161.95 248.256 158.075 244.681 154.9C241.056 151.725 234.656 145.4 234.656 145.025C234.656 144.875 234.831 144.675 235.031 144.6C235.306 144.5 236.831 145.825 239.856 148.775C242.281 151.175 246.081 154.625 248.281 156.475C252.106 159.675 259.906 165.65 261.081 166.275C261.606 166.55 261.906 166.325 265.081 163.35C266.981 161.575 270.956 157.675 273.931 154.7C276.881 151.7 279.381 149.25 279.456 149.25C279.531 149.25 279.656 149.5 279.731 149.8C279.856 150.275 279.131 151.125 275.206 155.075C272.631 157.675 268.781 161.45 266.656 163.45C264.531 165.45 262.756 167.15 262.731 167.225C262.581 167.575 270.231 172.275 276.031 175.45C281.306 178.3 290.556 182.5 291.631 182.5C291.856 182.5 293.231 181.375 294.731 180C296.631 178.225 297.581 177.5 298.031 177.5C298.381 177.5 298.656 177.6 298.656 177.725C298.656 177.85 297.406 179.125 295.906 180.525C294.381 181.925 293.231 183.175 293.331 183.275C293.581 183.475 300.956 185.825 303.006 186.35C303.881 186.575 304.756 186.975 305.131 187.375C305.481 187.725 305.631 188 305.456 188C304.456 188 294.931 185.175 292.406 184.15C292.156 184.05 291.406 184.5 290.281 185.45C284.606 190.2 274.181 197.225 269.606 199.4C269.106 199.625 268.731 199.925 268.806 200.025C268.981 200.35 274.881 202.2 279.031 203.25C282.606 204.175 288.756 205.25 290.381 205.25C291.206 205.25 293.856 204.1 296.606 202.55C298.356 201.55 298.406 201.55 298.406 202.1C298.406 202.825 298.256 202.95 295.656 204.35C294.081 205.2 293.706 205.5 294.156 205.5L294.781 205.525L294.081 205.9C293.681 206.1 292.706 206.4 291.856 206.525C291.031 206.65 289.906 206.975 289.331 207.225C287.931 207.825 286.306 208.275 285.106 208.35C283.806 208.45 284.131 208.2 286.606 207.225C287.731 206.8 288.631 206.375 288.581 206.325C288.506 206.275 287.131 206.025 285.506 205.75C281.356 205.05 276.006 203.7 271.131 202.1L266.981 200.725L265.006 201.7C259.581 204.4 253.131 206.8 246.881 208.45C246.056 208.675 245.981 208.65 246.081 208.225ZM269.881 197.95C275.381 195 282.231 190.425 287.831 185.95C289.381 184.7 290.581 183.575 290.481 183.475C290.381 183.375 289.206 182.875 287.906 182.375C282.206 180.15 271.281 174.375 264.781 170.125C263.181 169.1 261.806 168.25 261.706 168.25C261.606 168.25 260.356 169.275 258.931 170.5C253.631 175.15 244.256 182.825 241.681 184.65C241.131 185.05 240.656 185.45 240.656 185.55C240.656 185.85 246.081 189.2 251.031 191.95C256.331 194.875 265.731 199.2 266.881 199.225C267.206 199.25 268.556 198.675 269.881 197.95Z" fill="#545454"/>
<path d="M64.7823 162.876L62.0823 159.301L60.6823 159.926C59.0073 160.676 57.0323 161.451 53.1073 162.876C50.4073 163.851 50.2073 163.876 50.2323 163.426C50.2823 162.751 50.8323 162.451 54.4823 161.151C56.2323 160.501 58.5073 159.601 59.5323 159.126L61.3823 158.301L59.1573 154.951C57.4823 152.451 56.9573 151.451 57.0823 151.051C57.1573 150.751 57.3073 150.501 57.4073 150.501C57.5073 150.501 58.6823 152.126 60.0073 154.151C62.1573 157.376 62.4823 157.751 62.9823 157.601C64.2323 157.226 70.4323 153.976 77.0323 150.251C78.8073 149.251 89.4073 142.401 89.4073 142.251C89.4073 142.151 88.4823 140.976 87.3323 139.601C81.1823 132.226 75.4573 124.501 69.8823 116.076C68.0823 113.351 66.5323 111.101 66.4323 111.051C66.3573 111.026 64.9823 111.901 63.4323 113.001C61.8573 114.101 60.5073 115.001 60.4073 115.001C60.1323 115.001 59.9323 114.376 60.1073 114.076C60.2073 113.951 61.4823 112.951 62.9823 111.901C64.4573 110.826 65.6573 109.876 65.6573 109.751C65.6573 109.526 61.7323 102.751 61.3823 102.401C61.1073 102.101 61.0823 100.251 61.3573 100.251C61.4573 100.251 62.5573 102.001 63.7823 104.126C65.0323 106.251 66.2073 108.251 66.4573 108.551L66.8573 109.101L69.3323 107.251C72.7323 104.701 75.6073 102.451 80.4073 98.4755C83.7323 95.7505 84.6073 95.1505 84.8573 95.4005C85.0323 95.5755 85.1573 95.8005 85.1573 95.8755C85.1573 96.3005 72.8073 106.251 67.8323 109.826C67.4073 110.126 67.5073 110.351 69.3323 113.201C72.2323 117.726 76.0073 123.151 79.5823 127.901C82.7073 132.076 89.5823 140.676 90.2323 141.226C90.5073 141.426 91.3323 140.951 93.9323 139.101C101.257 133.851 111.857 125.326 116.757 120.726L118.257 119.326L114.632 114.976C112.607 112.576 108.207 107.376 104.807 103.426C101.432 99.4755 98.6573 96.1255 98.6573 96.0005C98.6573 95.7005 99.4073 95.6755 99.7823 95.9505C100.532 96.5005 117.507 116.451 121.382 121.351C122.232 122.426 122.832 123.401 122.707 123.476C122.582 123.551 122.507 123.826 122.557 124.076C122.582 124.301 122.582 124.501 122.532 124.501C122.482 124.501 121.707 123.601 120.807 122.501C119.882 121.401 119.057 120.501 118.957 120.501C118.857 120.501 117.032 122.051 114.907 123.926C108.882 129.226 97.8823 137.851 92.6073 141.476C91.9323 141.901 91.4073 142.351 91.4073 142.451C91.4073 142.551 92.0573 143.351 92.8323 144.251L94.2323 145.876L93.5323 145.951C92.9323 146.026 92.6073 145.801 91.5323 144.601L90.2323 143.151L86.6323 145.551C80.9823 149.301 74.5073 153.101 68.6573 156.076C65.7073 157.601 63.2823 158.851 63.2823 158.901C63.2823 158.926 64.4073 160.476 65.8073 162.326C68.1573 165.476 68.3073 165.726 67.8823 166.076C67.5073 166.426 67.2323 166.151 64.7823 162.876Z" fill="#545454"/>
<path d="M100.204 154.075C94.8541 148.45 94.8041 148.375 95.1541 147.75C95.4291 147.25 95.5291 147.3 96.9791 148.925C97.8041 149.85 100.129 152.275 102.129 154.325L105.754 158H104.854C104.004 158 103.679 157.725 100.204 154.075Z" fill="#545454"/>
<path d="M227.681 151.15C227.456 150.875 227.756 150.375 229.181 148.725C232.606 144.725 233.181 144.175 233.706 144.425C234.131 144.6 233.856 145.025 231.256 148.075C229.656 149.95 228.256 151.5 228.156 151.5C228.056 151.5 227.831 151.35 227.681 151.15Z" fill="#545454"/>
<path d="M145.456 148.225C144.756 147.4 144.156 146.625 144.156 146.525C144.156 146.425 144.481 146.375 144.881 146.45C145.356 146.525 145.956 146.975 146.706 147.825C148.206 149.575 148.231 149.65 147.456 149.7C146.906 149.75 146.531 149.45 145.456 148.225Z" fill="#545454"/>
<path d="M141.479 148.55C141.254 148.4 141.454 148.075 142.154 147.375C143.104 146.45 143.179 146.426 143.579 146.826C143.979 147.226 143.954 147.3 143.279 148C142.554 148.75 142.054 148.9 141.479 148.55Z" fill="#545454"/>
<path d="M349.782 141.526C349.707 141.226 349.532 141.001 349.407 141.001C349.307 141.001 349.932 139.176 350.782 136.951C352.957 131.351 352.907 131.651 351.657 131.151C351.107 130.926 350.232 130.326 349.732 129.826C348.732 128.826 348.732 128.826 351.332 129.751C352.707 130.251 352.882 130.376 352.857 130.976C352.857 131.326 352.982 131.951 353.132 132.351C353.282 132.751 353.357 133.301 353.257 133.601C353.057 134.276 350.132 141.851 350.032 141.951C349.982 142.001 349.882 141.801 349.782 141.526Z" fill="#545454"/>
<path d="M285.281 138.951C276.731 132.801 266.906 124.926 259.981 118.701L259.456 118.201L257.981 120.001C257.181 121.001 256.281 122.126 255.981 122.476L255.431 123.126L255.406 122.226C255.406 121.201 256.431 119.851 264.631 110.126C277.431 94.9506 279.656 92.5256 279.656 93.9256C279.656 94.1256 278.381 95.7756 276.831 97.6006C264.756 111.626 260.331 116.976 260.481 117.351C260.731 117.976 269.006 125.076 275.156 129.926C278.156 132.276 283.931 136.576 285.981 137.976C287.006 138.676 287.106 138.826 286.806 139.151C286.331 139.601 286.181 139.601 285.281 138.951Z" fill="#545454"/>
<path d="M362.432 133.901C360.807 133.626 360.382 133.301 360.982 132.801C361.482 132.376 364.582 132.976 364.732 133.526C364.957 134.326 364.882 134.351 362.432 133.901Z" fill="#545454"/>
<path d="M353.279 130.076C353.629 129.201 355.929 121.65 356.304 120.1C356.529 119.2 356.754 118.525 356.779 118.55C356.829 118.6 356.754 119.8 356.654 121.25C356.529 123.3 356.254 124.601 355.429 127.201C354.429 130.301 354.329 130.5 353.729 130.5C353.229 130.5 353.129 130.401 353.279 130.076Z" fill="#545454"/>
<path d="M297.58 127.85C297.53 127.775 298.33 126.575 299.38 125.175C303.53 119.65 311.03 108.45 310.855 108.025C310.805 107.925 309.555 106.9 308.03 105.75C304.38 103 296.105 96.3505 294.53 94.9505C293.505 94.0005 293.355 93.7505 293.605 93.4505C293.755 93.2505 293.805 92.9755 293.705 92.8755C293.605 92.7505 294.43 93.4255 295.53 94.3505C298.405 96.7505 307.455 103.9 309.705 105.575C311.105 106.625 311.68 106.9 311.855 106.675C312.83 105.425 319.655 93.2505 322.005 88.5505C324.805 82.9755 328.155 75.4005 328.13 74.7505C328.13 74.5505 325.955 72.6755 323.33 70.5755C320.68 68.5005 316.28 64.9255 313.53 62.6505C310.78 60.3505 308.405 58.5255 308.255 58.5505C308.105 58.6005 306.255 60.7755 304.155 63.3755C297.38 71.7755 292.455 77.5005 292.005 77.5005C291.055 77.5005 291.655 76.5005 294.83 72.8255C296.68 70.6505 300.205 66.4005 302.63 63.4005C309.08 55.3755 309.505 54.8755 310.105 54.8005C310.855 54.6755 310.805 55.1005 309.88 56.2505C309.455 56.7755 309.18 57.3255 309.28 57.4755C309.83 58.4005 328.33 73.3255 328.73 73.1755C329.455 72.9505 334.805 57.7755 336.905 50.0755C337.68 47.2255 337.78 47.0005 338.355 47.0005C338.805 47.0005 338.905 47.1005 338.805 47.4505C338.73 47.6755 338.28 49.2755 337.805 51.0005C336.13 57.0255 333.33 65.3255 331.055 71.0755C330.405 72.7005 329.905 74.1255 329.955 74.2505C330.03 74.5005 336.155 79.1755 340.88 82.6005C343.855 84.7505 344.03 84.9255 343.655 85.3255C343.255 85.7255 342.98 85.5755 338.755 82.4755C336.305 80.6755 333.28 78.4005 332.08 77.4505C330.855 76.5005 329.73 75.6755 329.555 75.6005C329.355 75.5255 328.805 76.5255 328.055 78.3005C324.955 85.5505 315.805 103.025 313.205 106.675C312.905 107.1 312.655 107.55 312.655 107.675C312.68 107.9 314.38 109.1 321.78 114.1C326.655 117.375 326.93 117.55 331.48 120.125C332.955 120.95 334.155 121.7 334.155 121.775C334.155 122.2 331.255 121.45 330.08 120.725C327.53 119.15 327.155 118.876 327.155 118.576C327.155 118.201 325.88 117 325.48 117C325.33 117 325.155 117.15 325.08 117.325C324.98 117.65 322.43 116.025 316.155 111.625C314.155 110.25 312.405 109.025 312.255 108.925C312.055 108.825 311.13 110.025 309.755 112.2C303.155 122.475 298.38 128.625 297.58 127.85Z" fill="#545454"/>
<path d="M43.105 125.701C42.88 125.526 42.655 124.976 42.58 124.501C42.505 124.026 42.08 122.701 41.655 121.576C40.955 119.826 40.855 119.401 41.08 118.701C41.355 117.826 41.405 117.876 41.88 119.751C42.28 121.276 42.48 121.826 43.38 123.976C43.805 124.976 44.155 125.851 44.155 125.901C44.155 126.126 43.48 125.976 43.105 125.701Z" fill="#545454"/>
<path d="M334.906 121.376C334.906 120.876 335.781 119.176 336.206 118.826C336.381 118.701 336.731 118.501 336.981 118.426C337.381 118.276 337.381 118.326 337.031 119.126C336.831 119.601 336.481 120.401 336.281 120.876C335.881 121.776 334.906 122.126 334.906 121.376Z" fill="#545454"/>
<path d="M38.8294 114.55C38.6044 113.875 38.3544 113.175 38.2794 112.95C38.1794 112.7 38.3044 112.525 38.6544 112.425C39.0544 112.325 39.2544 112.45 39.4544 112.95C39.5794 113.325 39.8044 113.825 39.9294 114.075C40.0794 114.35 40.0544 114.5 39.9044 114.5C39.7794 114.5 39.6544 114.725 39.6544 114.975C39.6544 115.95 39.2044 115.725 38.8294 114.55Z" fill="#545454"/>
<path d="M340.656 106.65C340.656 106.45 341.006 105.25 341.431 103.95C342.531 100.6 344.756 93.1754 345.281 91.1254C345.781 89.1504 346.106 88.6504 346.631 89.0004C346.956 89.1754 346.906 89.5004 346.431 91.1754C346.131 92.2504 345.706 93.7254 345.506 94.4754C345.306 95.2004 344.931 96.1004 344.656 96.4504C344.331 96.8504 344.156 97.4004 344.206 97.9754C344.231 98.5004 343.706 100.55 342.931 102.95C341.831 106.35 341.556 107 341.131 107C340.881 107 340.656 106.85 340.656 106.65Z" fill="#545454"/>
<path d="M359.881 96.6755C358.481 95.8255 358.156 95.4755 358.156 94.8255V94.2005L359.106 94.7755C359.606 95.1005 360.281 95.5005 360.581 95.7005C361.106 96.0255 361.131 96.0005 361.306 94.7505C361.431 93.7755 361.556 93.5005 361.881 93.5505C362.181 93.6255 362.281 93.9505 362.281 95.0005C362.281 95.7505 362.381 96.5255 362.481 96.7005C362.631 96.9005 362.506 97.0005 362.056 97.0005C361.731 97.0005 361.306 97.0505 361.106 97.1005C360.931 97.1505 360.381 96.9505 359.881 96.6755Z" fill="#545454"/>
<path d="M22.6299 95.7504C22.6049 95.6254 22.5799 95.4004 22.5549 95.2754C22.5299 95.1504 24.4049 93.8004 26.7299 92.2754C29.0299 90.7504 30.9049 89.4504 30.9049 89.3754C30.9049 89.2754 30.5799 87.9004 30.1799 86.3004C29.3299 82.9254 28.3549 78.5254 28.3049 78.0254C28.2799 77.8504 28.5299 77.6004 28.8049 77.5004C29.3049 77.3004 29.3549 77.4004 29.5049 78.3254C29.6049 78.9004 30.1799 81.4754 30.8049 84.0754L31.9549 88.7504L32.7299 88.2004C33.1799 87.9004 34.9799 86.6004 36.7549 85.3004C39.7549 83.1254 40.6549 82.7254 40.6549 83.5754C40.6549 83.7754 38.8049 85.2504 36.5299 86.8754C34.2049 88.5504 32.4049 90.0254 32.4049 90.2254C32.4049 90.4504 32.5799 91.2004 32.7799 91.8754C33.4799 94.1504 33.4799 94.5004 32.8549 94.5004C32.3549 94.5004 32.2299 94.2754 31.8299 92.7004C31.5799 91.7004 31.3549 90.8504 31.2799 90.8004C31.2299 90.7504 29.5799 91.7754 27.6049 93.0754C23.0299 96.0754 22.7049 96.2754 22.6299 95.7504Z" fill="#545454"/>
<path d="M348.706 89.5255C348.181 89.2005 349.006 88.6755 349.681 88.8755C350.231 89.0505 350.231 89.0755 349.781 89.4005C349.231 89.8005 349.156 89.8255 348.706 89.5255Z" fill="#545454"/>
<path d="M347.932 80.9504C348.757 77.2754 350.607 68.4504 351.082 65.8754C351.507 63.6004 351.582 63.3754 352.132 63.3004C352.682 63.2004 352.707 63.2754 352.557 64.1754C352.007 67.3504 350.032 76.8754 349.332 79.6254C348.632 82.4504 348.457 82.8754 347.982 82.9504L347.457 83.0254L347.932 80.9504Z" fill="#545454"/>
<path d="M85.5813 78.9505C84.2563 77.5255 75.3313 66.8255 72.5563 63.3255C71.3313 61.7755 70.2563 60.5005 70.1813 60.5005C70.1063 60.5255 68.1812 62.0755 65.9062 63.9755C63.3563 66.1005 61.7062 67.3255 61.6062 67.1505C61.4812 66.9505 61.2062 66.9755 60.6062 67.2005L59.7812 67.5005L60.6562 66.8005C62.5312 65.3505 68.8063 60.0755 69.0813 59.7255C69.3313 59.4255 69.1812 59.1005 68.2562 57.9255L67.1062 56.5005H67.8562C68.5062 56.5005 68.8563 56.8005 70.4313 58.8255C73.6813 62.9255 80.7063 71.5255 83.8313 75.2005C85.9313 77.6505 86.9062 79.0005 86.9062 79.4005C86.9062 79.7255 86.8312 80.0005 86.7312 80.0005C86.6562 80.0005 86.1313 79.5255 85.5813 78.9505Z" fill="#545454"/>
<path d="M45.179 67.2004C43.929 63.6754 43.904 63.6504 44.554 63.5504C45.004 63.4754 45.204 63.8254 46.104 66.4504C46.679 68.0754 47.154 69.5504 47.154 69.7004C47.154 69.8754 46.929 70.0004 46.679 70.0004C46.304 70.0004 46.004 69.4254 45.179 67.2004Z" fill="#545454"/>
<path d="M7.05547 69.3255C6.95547 69.0755 6.95547 68.9755 7.05547 69.0755C7.15547 69.1755 7.35547 69.0755 7.50547 68.9005C7.65547 68.7005 8.18047 68.3255 8.68047 68.0505L9.60547 67.5505L9.85547 68.1255C10.1055 68.7005 10.0555 68.7505 8.75547 69.2255C7.10547 69.8505 7.25547 69.8505 7.05547 69.3255Z" fill="#545454"/>
<path d="M370.654 67.5755C369.604 67.1755 365.029 64.8005 363.179 63.7005C361.079 62.4255 356.229 59.1505 354.554 57.8755C353.679 57.2255 353.654 57.2005 353.654 57.7255C353.654 58.3005 353.479 58.3755 352.904 58.0005C352.679 57.8755 352.554 57.4755 352.604 57.0755C352.679 56.4755 352.504 56.2255 351.579 55.6005C349.354 54.0005 341.329 47.1505 341.629 47.0505C342.004 46.9255 345.204 48.9255 346.654 50.1755C348.279 51.5755 351.454 54.1005 352.204 54.6005C352.929 55.0755 352.879 55.1755 353.304 52.2005C353.429 51.1505 353.529 51.0005 354.079 51.0005C354.604 51.0005 354.654 51.0755 354.529 51.8255C354.079 54.6005 353.929 55.8755 354.104 56.0005C357.154 58.5755 364.054 63.0255 368.079 65.0505C370.654 66.3505 371.654 66.9755 371.654 67.3005C371.654 67.7505 371.354 67.8255 370.654 67.5755Z" fill="#545454"/>
<path d="M18.0798 63.7005C19.3298 62.0255 19.9798 61.2505 20.1298 61.2505C20.3048 61.2505 20.3048 61.4755 20.1798 62.5505C20.1548 62.7755 18.3548 64.0005 18.0548 64.0005C17.9298 64.0005 17.9548 63.8505 18.0798 63.7005Z" fill="#545454"/>
<path d="M61.3042 49.1005C60.1292 47.6505 59.9792 47.3754 60.3792 47.1504C60.8042 46.8754 61.3542 47.3004 62.3792 48.6504C63.3042 49.9004 63.3542 50.0004 62.9292 50.2504C62.5292 50.4504 62.2792 50.2755 61.3042 49.1005Z" fill="#545454"/>
<path d="M315.656 48.3755C315.656 48.2005 315.456 47.9005 315.231 47.7755C314.856 47.5755 314.956 47.5255 315.731 47.5005H316.656L316.256 48.1255C315.781 48.8505 315.656 48.9005 315.656 48.3755Z" fill="#545454"/>
<path d="M39.7812 45.7505C39.7062 45.6255 39.4062 45.5005 39.1312 45.5005C38.8812 45.5005 38.6562 45.4505 38.6562 45.4005C38.6562 45.3505 38.3562 44.0255 38.0062 42.4755C37.3062 39.3005 36.4062 34.6005 36.4062 33.9505C36.4062 33.4255 37.3812 33.3255 37.5062 33.8255C37.5562 33.9755 37.7313 35.0255 37.9062 36.1255C38.2812 38.6755 39.6313 44.8255 39.8563 45.0505C39.9563 45.1505 42.2812 43.1005 45.0312 40.4755C47.7812 37.8755 50.1062 35.7505 50.2062 35.7505C50.6312 35.7505 50.3563 36.7505 49.7313 37.5255C48.3063 39.2005 40.8312 46.0005 40.3812 46.0005C40.1312 46.0005 39.8563 45.9005 39.7812 45.7505Z" fill="#545454"/>
<path d="M22.3304 40.0005C22.2554 39.7255 22.2804 39.5005 22.3554 39.4755C22.4554 39.4755 22.7304 39.4255 22.9804 39.3755C23.4804 39.2755 23.5554 39.7505 23.1054 40.2005C22.6804 40.6255 22.4804 40.5755 22.3304 40.0005Z" fill="#545454"/>
<path d="M35.3321 26.3255C35.1821 25.6005 35.7821 24.6505 36.1821 24.9005C36.5071 25.1005 36.4321 26.0755 36.0571 26.5755C35.6071 27.1505 35.4821 27.1255 35.3321 26.3255Z" fill="#545454"/>
</svg>
